/* XPM */
static char * crosshair_xpm[] = {
"64 64 18 1",
" 	c None",
".	c #FFFFFF",
"+	c #FFFFFF",
"@	c #FFFFFF",
"#	c #FFFFFF",
"$	c #FFFFFF",
"%	c #FFFFFF",
"&	c #FFFFFF",
"*	c #FFFFFF",
"=	c #FFFFFF",
"-	c #FEFEFE",
";	c #FFFFFF",
">	c #FFFFFF",
",	c #FFFFFF",
"'	c #FEFEFE",
")	c #FFFFFF",
"!	c #000000",
"~	c #FFFFFF",
"                                                                ",
"                                                                ",
"                                                                ",
"                                                                ",
"                                                                ",
"                                                                ",
"                                                                ",
"                                                                ",
"                                                                ",
"                                                                ",
"                                                                ",
"                                                                ",
"                                                                ",
"                                                                ",
"                                                                ",
"                                                                ",
"                                                                ",
"                            ........                            ",
"                         ..............                         ",
"                        ....   ..   ....                        ",
"                      ....     ..     ....                      ",
"                     ...       ..       ...                     ",
"                    ...        ..        ...                    ",
"                    ..         ..         ..                    ",
"                   ..          ..          ..                   ",
"                  ...          ..          ...                  ",
"                  ..           ..           ..                  ",
"                  ..           ..           ..                  ",
"                 ..                          ..                 ",
"                 ..                          ..                 ",
"                 ..                          ..                 ",
"                 ...........   ..   ...........                 ",
"                 ...........   ..   ...........                 ",
"                 ..                          ..                 ",
"                 ..                          ..                 ",
"                 ..                          ..                 ",
"                  ..           ..           ..                  ",
"                  ..           ..           ..                  ",
"                  ...          ..          ...                  ",
"                   ..          ..          ..                   ",
"                    ..         ..         ..                    ",
"                    ...        ..        ...                    ",
"                     ...       ..       ...                     ",
"                      ....     ..     ....                      ",
"                        ....   ..   ....                        ",
"                         ..............                         ",
"                            ........                            ",
"                                                                ",
"                                                                ",
"                                                                ",
"                                                                ",
"                                                                ",
"                                                                ",
"                                                                ",
"                                                                ",
"                                                                ",
"                                                                ",
"                                                                ",
"                                                                ",
"                                                                ",
"                                                                ",
"                                                                ",
"                                                                ",
"                                                                "};
