/* XPM */
static char *b156ad47556e455abd2a11da4876d660ST7lIs7GjiS2Y48m[] = {
/* columns rows colors chars-per-pixel */
"64 64 17 1 ",
"  c white",
". c white",
"X c white",
"o c white",
"O c white",
"+ c white",
"@ c white",
"# c white",
"$ c white",
"% c #FEFEFE",
"& c white",
"* c white",
"= c None",
"- c #FEFEFE",
"; c white",
": c black",
"> c white",
/* pixels */
"::::::::::::::::::::::::::::::::::::::::::::::::::::::::::::::::",
"::::::::::::::::::::::::::::::::::::::::::::::::::::::::::::::::",
"::::::::::::::::::::::::;+*&%%%%%%%%&*+;::::::::::::::::::::::::",
":::::::::::::::::::::$*->>>>>>>>>>>>>>>>-*$:::::::::::::::::::::",
":::::::::::::::::::@#>>>>>>>>>>>>>>>>>>>>>>#@:::::::::::::::::::",
"::::::::::::::::;.=>>>>>>>>>>>>>>>>>>>>>>>>>>=.;::::::::::::::::",
":::::::::::::::X->>>>>>>>#&.XX>>>>XX.&#>>>>>>>>-X:::::::::::::::",
":::::::::::::;*>>>>>>>&@;:::::>>>>:::::;@&>>>>>>>*;:::::::::::::",
"::::::::::::;#>>>>>=*;::::::::>>>>::::::::;*=>>>>>#;::::::::::::",
":::::::::::$=>>>>>&;::::::::::>>>>::::::::::;&>>>>>=$:::::::::::",
"::::::::::o=>>>>-$::::::::::::>>>>::::::::::::$->>>>=o::::::::::",
":::::::::;#>>>>O::::::::::::::>>>>::::::::::::::O>>>>#;:::::::::",
":::::::::#>>>>@:::::::::::::::>>>>:::::::::::::::@>>>>#:::::::::",
"::::::::&>>>>*::::::::::::::::>>>>::::::::::::::::*>>>>&::::::::",
":::::::.>>>>&:::::::::::::::::>>>>:::::::::::::::::&>>>>.:::::::",
"::::::o>>>>%::::::::::::::::::>>>>::::::::::::::::::%>>>>o::::::",
"::::::%>>>=;::::::::::::::::::>>>>::::::::::::::::::;=>>>%::::::",
":::::@>>>>X:::::::::::::::::::>>>>:::::::::::::::::::X>>>>@:::::",
":::::->>> ::::::::::::::::::::>>>>:::::::::::::::::::: >>>-:::::",
"::::@>>>>o::::::::::::::::::::>>>>::::::::::::::::::::o>>>>@::::",
"::::->>>&:::::::::::::::::::::>>>>:::::::::::::::::::::&>>>-::::",
":::$>>>>;:::::::::::::::::::::>>>>:::::::::::::::::::::;>>>>$:::",
":::&>>>&::::::::::::::::::::::>>>>::::::::::::::::::::::&>>>&:::",
":::->>>+::::::::::::::::::::::>>>>::::::::::::::::::::::+>>>-:::",
"::o>>>>::::::::::::::::::::::::::::::::::::::::::::::::::>>>>o::",
"::@>>>%::::::::::::::::::::::::::::::::::::::::::::::::::%>>>@::",
"::O>>>*::::::::::::::::::::::::::::::::::::::::::::::::::*>>>O::",
"::%>>>+::::::::::::::::::::::::::::::::::::::::::::::::::+>>>%::",
"::#>>>$::::::::::::::::::::::::::::::::::::::::::::::::::$>>>#::",
"::>>>>::::::::::::::::::::::::::::::::::::::::::::::::::::>>>>::",
"::>>>>>>>>>>>>>>>>>>>>>>::::::>>>>::::::>>>>>>>>>>>>>>>>>>>>>>::",
"::>>>>>>>>>>>>>>>>>>>>>>::::::>>>>::::::>>>>>>>>>>>>>>>>>>>>>>::",
"::>>>>>>>>>>>>>>>>>>>>>>::::::>>>>::::::>>>>>>>>>>>>>>>>>>>>>>::",
"::>>>>>>>>>>>>>>>>>>>>>>::::::>>>>::::::>>>>>>>>>>>>>>>>>>>>>>::",
"::>>>>;::::::::::::::::::::::::::::::::::::::::::::::::::;>>>>::",
"::%>>>X::::::::::::::::::::::::::::::::::::::::::::::::::X>>>%::",
"::%>>>+::::::::::::::::::::::::::::::::::::::::::::::::::+>>>%::",
"::*>>>*::::::::::::::::::::::::::::::::::::::::::::::::::*>>>*::",
"::@>>>%::::::::::::::::::::::::::::::::::::::::::::::::::%>>>@::",
"::$>>>=::::::::::::::::::::::::::::::::::::::::::::::::::=>>>$::",
":::->>>+::::::::::::::::::::::>>>>::::::::::::::::::::::+>>>-:::",
":::&>>>&::::::::::::::::::::::>>>>::::::::::::::::::::::&>>>&:::",
":::+>>>=;:::::::::::::::::::::>>>>:::::::::::::::::::::;=>>>+:::",
"::::->>>*:::::::::::::::::::::>>>>:::::::::::::::::::::*>>>-::::",
"::::*>>>=;::::::::::::::::::::>>>>::::::::::::::::::::;=>>>*::::",
"::::;=>>>*::::::::::::::::::::>>>>::::::::::::::::::::*>>>=;::::",
":::::*>>>>$:::::::::::::::::::>>>>:::::::::::::::::::$>>>>*:::::",
"::::::->>>#;::::::::::::::::::>>>>::::::::::::::::::;#>>>-::::::",
"::::::+>>>>&::::::::::::::::::>>>>::::::::::::::::::&>>>>+::::::",
":::::::O>>>>.:::::::::::::::::>>>>:::::::::::::::::.>>>>O:::::::",
"::::::::#>>>>@::::::::::::::::>>>>::::::::::::::::@>>>>#::::::::",
"::::::::o->>>>&:::::::::::::::>>>>:::::::::::::::&>>>>-o::::::::",
":::::::::$=>>>> ;:::::::::::::>>>>:::::::::::::; >>>>=$:::::::::",
"::::::::::$->>>>-$::::::::::::>>>>::::::::::::$->>>>-$::::::::::",
":::::::::::;#>>>>=O;::::::::::>>>>::::::::::;O=>>>>#;:::::::::::",
"::::::::::::;#>>>>>-.:::::::::>>>>:::::::::.->>>>>#;::::::::::::",
":::::::::::::;.>>>>>>=Oo::::::>>>>::::::oO=>>>>>>.;:::::::::::::",
":::::::::::::::X=>>>>>>>-O@$::>>>>::$@O->>>>>>>=X:::::::::::::::",
":::::::::::::::::*=>>>>>>>>>>>>>>>>>>>>>>>>>>=*:::::::::::::::::",
"::::::::::::::::::o*->>>>>>>>>>>>>>>>>>>>>>-*o::::::::::::::::::",
":::::::::::::::::::::+ >>>>>>>>>>>>>>>>>> +:::::::::::::::::::::",
":::::::::::::::::::::::;+O%->>>>>>>>-%O+;:::::::::::::::::::::::",
"::::::::::::::::::::::::::::::::::::::::::::::::::::::::::::::::",
"::::::::::::::::::::::::::::::::::::::::::::::::::::::::::::::::"
};
