/* XPM */
static char *_20c88dca641400bca18ca046c80165bbJRMQuG031A1TssL[] = {
/* columns rows colors chars-per-pixel */
"64 64 85 1 ",
"  c #black",
". c None",
"X c black",
"o c black",
"O c black",
"+ c black",
"@ c black",
"# c black",
"$ c black",
"% c black",
"& c black",
"* c black",
"= c black",
"- c black",
"; c black",
": c black",
"> c black",
", c black",
"< c black",
"1 c black",
"2 c black",
"3 c black",
"4 c black",
"5 c black",
"6 c black",
"7 c black",
"8 c black",
"9 c black",
"0 c black",
"q c None",
"w c black",
"e c #030304",
"r c #99826B",
"t c #DCBA9B",
"y c #070608",
"u c #5D63E9",
"i c #0F0D0C",
"p c #1A1715",
"a c #2D2B2C",
"s c #5C62E7",
"d c #131110",
"f c #4045A0",
"g c #927C66",
"h c gray14",
"j c #1F1C1B",
"k c #4247A6",
"l c #101028",
"z c #54473B",
"x c #070813",
"c c #3B3F93",
"v c #D6B597",
"b c #222557",
"n c #CCAD90",
"m c #1C1E46",
"M c #353986",
"N c #555AD5",
"B c #2B2E6C",
"V c #9C846D",
"C c #806C5A",
"Z c #8A7561",
"A c #B69A80",
"S c #291D21",
"D c #5A60E1",
"F c #2D261F",
"G c #3A3129",
"H c #585EDC",
"J c #C3A68A",
"K c #5257CD",
"L c #AE937A",
"P c #17193B",
"I c #A28972",
"U c #7A6856",
"Y c #2F3377",
"T c #4F55C7",
"R c #4F3046",
"E c #462A3E",
"W c #44392F",
"Q c #6F5E4E",
"! c #5C3750",
"~ c #474BB2",
"^ c #5A364F",
"/ c #665747",
"( c black",
") c black",
"_ c #47704C",
/* pixels */
"                                                                ",
"                                                                ",
"                                                                ",
"                                                                ",
"                                                                ",
"                                                                ",
"                                                                ",
"                                                                ",
"                                                                ",
"                                                                ",
"                                                                ",
"                                                                ",
"                                                                ",
"                                                                ",
"                                $#7%0$:o2#                      ",
"                             $ #@;ew6%3>w0                      ",
"                           &%22.wyww*wexw%                      ",
"                      ++ <@;w;9emBewePMYw-0+                    ",
"                     $%o&3wwwwxBTbwlBkHMw>*o                    ",
"                     7>4,wywxmfHKPbckNuYwww@                    ",
"                    o;w9wlMckTDuNkkkKssbwww,+                   ",
"                   <3wwwxMHusssssDNNssDPyme,$                   ",
"                   @wllwmkDDTHssusssssNPMmw;@8<+                ",
"                  :XyYmeYkK~kHsHkDssssN~cxewwq38$               ",
"                  =XxMBlcffffNucxcuusssuTflwX%5+                ",
"                  +,eYMBfffMbKTlwlc~sNfKKmw,#                   ",
"                $$ -wBffcBcPwYbwdeelcbblPwO5                    ",
"                =%@XwBkfbelywyedQpwwywxwwwq%                    ",
"                 &-qwmfMxwweFewydyiGwwwwwewX=                   ",
"                  :3wwmbwpyGASyjhpiZzweewFe91                   ",
"                  :XeiwxwUUIApjaaadWCyhhidew@                   ",
"                  #;p/iwerttgyhaahjpFdaajew*2$                  ",
"                  &OpgzwyLttCyhaapdipdaapywO&                   ",
"                  #OpZgSiIttgyjaaajjWyhahyeO&                   ",
"                  =.iCVQpgntJjdhhaizIdipiFi.=                   ",
"                  +-e/VgzZLvtUydpipLtZFpzCy,+                   ",
"                   %wGrrgrrAvvCFpGItttnJvzw%                    ",
"                   &OiUVrrrrAvtnJvttttttApO5                    ",
"                   $4wGgrrrrrLvtttvJnttvzw4$                    ",
"                    #.ezrrrrrVIJtnVZCntUe.&                     ",
"                     8*yzgVrrrrVLAntnnUi>7                      ",
"                      0*eGCrVrrrrILJAze>0$                      ",
"                       7.wiWQZgggZQWdw.7$                       ",
"                    =o+ &4OwedjSjdew>48&                        ",
"                   5,*6@@o1Oweeeeyyw-2.;@4%<                    ",
"                  :,wwwwwO83eSEEERSw-Owwwww3=                   ",
"                  =Xwwwwww6-wSR!!^p>@>wwwwwe7                   ",
"                   @wwwwww-@wjR^!Ry.53wwwwww2                   ",
"                   5*wwwww%2wdE^!aw6 %wwwww*o                   ",
"                   +6wwww.#&OeSREi91 #.wwww6+                   ",
"                    <->9X1  @weiyw4+  1Xq>-<                    ",
"                     :o1= $##%XO.6o    <1o:                     ",
"                          &.X%5##-;4o$                          ",
"                          2wwwXo#Oww*%$                         ",
"                          1X;O;%=,;OO-:                         ",
"                          $=##<+ :<##:                          ",
"                                                                ",
"                                                                ",
"                                                                ",
"                                                                ",
"                                                                ",
"                                                                ",
"                                                                ",
"                                                                "
};
