/* XPM */
static char *_3a9702daeaa44b98b0f42d28617fb2aNmgM2hPKhckdjNYx[] = {
/* columns rows colors chars-per-pixel */
"64 64 133 2 ",
"   c None",
".  c #000000",
"X  c #080606",
"o  c #0B0907",
"O  c #04050B",
"+  c #0A0609",
"@  c #0C0B0A",
"#  c #110E0C",
"$  c #13110E",
"%  c #070711",
"&  c #070812",
"*  c #090916",
"=  c #0B0C1B",
"-  c #140C12",
";  c #180E15",
":  c #131313",
">  c #191511",
",  c #1D1915",
"<  c #1D1219",
"1  c #1B1C1B",
"2  c #22151E",
"3  c #241E19",
"4  c #27211C",
"5  c #2A231D",
"6  c #0E0F23",
"7  c #12132D",
"8  c #141632",
"9  c #161838",
"0  c #191B3E",
"q  c #2A1A25",
"w  c #2F1D29",
"e  c #321E2C",
"r  c #242424",
"t  c #2F2721",
"y  c #2F2821",
"u  c #2C2C2C",
"i  c #332B24",
"p  c #3C332A",
"a  c #372131",
"s  c #3C2435",
"d  c #41372E",
"f  c #44293B",
"g  c #492C3F",
"h  c #473C32",
"j  c #483D32",
"k  c #4B4035",
"l  c #53463B",
"z  c #55483C",
"x  c #594C3F",
"c  c #1B1D44",
"v  c #1F214C",
"b  c #222454",
"n  c #24275B",
"m  c #26285E",
"M  c #272A61",
"N  c #282B64",
"B  c #2E3172",
"V  c #303377",
"C  c #31357B",
"Z  c #4A2D41",
"A  c #56344B",
"S  c #5A364F",
"D  c #5C3750",
"F  c #5D3852",
"G  c #5C4E41",
"H  c #5E5042",
"J  c #635345",
"K  c #675749",
"L  c #6C5B4C",
"P  c #736151",
"I  c #7B6956",
"U  c #7E6B59",
"Y  c #826E5B",
"T  c #86725E",
"R  c #877360",
"E  c #8C7762",
"W  c #8E7963",
"Q  c #927C66",
"!  c #967F69",
"~  c #97806A",
"^  c #9A836C",
"/  c #9E8670",
"(  c #A38B73",
")  c #AA9077",
"_  c #AC9279",
"`  c #B0957C",
"'  c #343781",
"]  c #363A86",
"[  c #373B89",
"{  c #3B3E92",
"}  c #3C4196",
"|  c #3E439B",
" . c #4145A1",
".. c #4248A6",
"X. c #454AAC",
"o. c #484DB3",
"O. c #4A4FB9",
"+. c #4C51BE",
"@. c #4F54C4",
"#. c #5156CA",
"$. c #5358CE",
"%. c #555AD4",
"&. c #575CD9",
"*. c #595EDE",
"=. c #595FE0",
"-. c #5C62E5",
";. c #5D63E9",
":. c #B69A80",
">. c #B89C82",
",. c #BDA085",
"<. c #C4A68A",
"1. c #C7A98D",
"2. c #CBAC8F",
"3. c #CDAE91",
"4. c #CFB092",
"5. c #D3B395",
"6. c #D5B496",
"7. c #D6B697",
"8. c #D0B093",
"9. c #D8B798",
"0. c #D8B799",
"q. c #DAB99A",
"w. c #DBBA9A",
"e. c #DBBA9B",
"r. c #DCBA9B",
"t. c #DCBB9B",
"y. c #DCBB9C",
"u. c #DDBB9C",
"i. c #DDBC9C",
"p. c #DEBC9C",
"a. c #D9B99A",
"s. c #E0BE9E",
"d. c #E1BF9F",
/* pixels */
"                                                                                                                                ",
"                                                                                                                                ",
"                                                                                                                                ",
"                                                                                                                                ",
"                                                                                                                                ",
"                                                                                                                                ",
"                                                                                                                                ",
"                                                                                                                                ",
"                                                                                                                                ",
"                                                                                                                                ",
"                                                                                                                                ",
"                                                                                                                                ",
"                                                                                                                                ",
"                                                                                                                                ",
"                                                                                                                                ",
"                                                                                                                                ",
"                                                                                                                                ",
"                                                                                                                                ",
"                                                                                                                                ",
"                                                                                                                                ",
"                                                                                                                                ",
"                                                                                                                                ",
"                                                                                                                                ",
"                                                                                                                                ",
"                                                                                                                                ",
"                                                                                                                                ",
"                                                                                                                                ",
"                                            .                                                                                   ",
"                                          . .                                                                                   ",
"                                          . .         . . . .                                                                   ",
"                                . . . . . . . . . . . . . . . . . .                                                             ",
"                          . . . . . . * . O = . . . . . d Q U x 4 X . .                                                         ",
"                        . . . . . . . b b = { = . . . p <.s.s.a.1.E y . .                                                       ",
"                          . 8 m 9 % . & | ' &.' O . X G K H ^ 5.y.i.<.G X .                                                     ",
"                          . c %.*.O.C 0 m &.;.O.= . . . . o @ x 3.a.t.6.L X .                                                   ",
"                          . =  .*.;.;.*.@.*.&.b O . . : 1 r r X T y.a.a.5.z . .                                                 ",
"                        . . O V O.-.-.-.;.;.#.C 7 . X r u u u o G a.a.a.y.,.3 .                                                 ",
"                      . . . . v  .@.-.-.-.-.-.B O . . : u r 1 X Y y.a.a.a.y.L . .                                               ",
"                      . . . . 6 } ..*.-.-.-.=.' O . > # o o @ z 3.a.a.9.3.6.W @ .                                               ",
"                        . = = O V X.-.-.-.-.V O . h / J 3 i Y 5.y.a.t.^ ( <.! 4 .                                               ",
"                        . 7  .n M #.-.-.;.%.b . . i 4 @ @ @ 3 P 8.a.t.R ,._ ~ d .         . . .       .                         ",
"                        . O [ *.#.-.-.*.{ 8 . X X . 1 r : r 1 o L 9.y.) ^ ^ ^ k . . . . . . . . .   . . .                       ",
"                        . . 0 #.;.-.-.$.9 . . J y : u u 1 u u 1 > >.i.<.T ~ ^ k . + X . . . . . . . . . .                       ",
"                          . % | -.-.-.;.+.8 . 4 : 1 u u u u u 1 @ ( 6.) ~ ~ ~ p . q Z a < X . . . . . .                         ",
"                        . . . N &.-.-.-.;.+.8 . . : u u u u r : , :.` ~ ~ ~ Q 3 . e A F D Z 2 . . . . .                         ",
"                        . . . 0 #.*.#.%.&.%.V O . . @ 1 1 1 # o L _ ~ ~ ~ ^ I o + s A S S D A ; . .                             ",
"                          . . 7 %.-.o. .{ 0 O . 3 P l , # : i P ( ~ ~ ~ ~ ~ j . < f S S S S A < .                               ",
"                          . . 0 &.;.%...{ 9 . . L a.a.<._ ) ( ^ ~ ~ ~ ~ ^ I # . q f Z Z g f w X .   . .                         ",
"                          . . c +.&.%.X. .| 0 . o P 4.2.:.( ~ ~ ~ ~ ~ ^ W 5 . . - q 2 < ; # . . .   . .                         ",
"                            . O b  ... . .] 7 . . i ~ ^ ~ ~ ~ ~ ~ ~ ^ W p . . . . . . . . . .     . . .                         ",
"                            . . O 0 [  . .V O . $ J E ~ ^ ^ ~ ~ ^ ^ U y . .     . . .             . . .                         ",
"                          . . . . . * m }  .M O . X > p H U Q Q U k $ . .           . . . .                                     ",
"                            . . O 6 7 0 V  . .' 9 . . . . @ 3 4 @ . . .             . . . . .                                   ",
"                              . O B |  . . . .] 7 . . . . . . . . .               . . . . . . .                                 ",
"                              . . * c c v N N = . .                               . . . . . . .                                 ",
"                                . . . . . . . . .                                 . . . . . . .                                 ",
"                                    . . . . . .                                   . . . . . .                                   ",
"                                          . .                                     . . . . .                                     ",
"                                          .                                         . .                                         ",
"                                                                                                                                ",
"                                                                                                                                ",
"                                                                                                                                ",
"                                                                                                                                ",
"                                                                                                                                "
};
