/* XPM */
static char *_2d3c5d5fc9a4542934badef09aff9b2[] = {
/* columns rows colors chars-per-pixel */
"64 64 241 2 ",
"   c black",
".  c gray7",
"X  c black",
"o  c black",
"O  c black",
"+  c black",
"@  c black",
"#  c black",
"$  c black",
"%  c black",
"&  c black",
"*  c black",
"=  c black",
"-  c black",
";  c black",
":  c black",
">  c black",
",  c #070707",
"<  c gray2",
"1  c black",
"2  c black",
"3  c black",
"4  c black",
"5  c black",
"6  c black",
"7  c black",
"8  c #282727",
"9  c #050207",
"0  c #180C1C",
"q  c #080409",
"w  c black",
"e  c #020202",
"r  c #1D1D1D",
"t  c #070707",
"y  c black",
"u  c black",
"i  c black",
"p  c #0D0610",
"a  c #222321",
"s  c gray2",
"d  c black",
"f  c black",
"g  c black",
"h  c black",
"j  c #1A0D1E",
"k  c #000001",
"l  c black",
"z  c #160B19",
"x  c black",
"c  c black",
"v  c #0B060C",
"b  c black",
"n  c black",
"m  c #110914",
"M  c black",
"N  c black",
"B  c #0D070F",
"V  c black",
"C  c black",
"Z  c #030103",
"A  c #201025",
"S  c black",
"D  c black",
"F  c None",
"G  c #050205",
"H  c black",
"J  c black",
"K  c #020102",
"L  c #190D1D",
"P  c black",
"I  c #030204",
"U  c #180C1B",
"Y  c black",
"T  c black",
"R  c black",
"E  c black",
"W  c #0B060D",
"Q  c #010001",
"!  c black",
"~  c black",
"^  c black",
"/  c black",
"(  c black",
")  c black",
"_  c black",
"`  c black",
"'  c #29152F",
"]  c black",
"[  c black",
"{  c black",
"}  c black",
"|  c black",
" . c black",
".. c black",
"X. c black",
"o. c #211126",
"O. c black",
"+. c black",
"@. c black",
"#. c black",
"$. c black",
"%. c black",
"&. c #1C0F21",
"*. c #040205",
"=. c black",
"-. c black",
";. c black",
":. c black",
">. c black",
",. c black",
"<. c #010001",
"1. c #120915",
"2. c #0A050B",
"3. c black",
"4. c black",
"5. c black",
"6. c black",
"7. c black",
"8. c black",
"9. c black",
"0. c black",
"q. c black",
"w. c black",
"e. c black",
"r. c black",
"t. c black",
"y. c black",
"u. c black",
"i. c #373737",
"p. c #2C2B2C",
"a. c #6D6E6D",
"s. c #19121B",
"d. c #824296",
"f. c #87469C",
"g. c #2B1532",
"h. c #585858",
"j. c #3C1F45",
"k. c #6F3981",
"l. c #131014",
"z. c #232223",
"x. c #2C1932",
"c. c #934BAA",
"v. c #C465E2",
"b. c #753C87",
"n. c #272029",
"m. c #232323",
"M. c #9A4FB2",
"N. c #AC58C7",
"B. c #6B377C",
"V. c #6A357A",
"C. c #7E4091",
"Z. c #9E51B6",
"A. c #BD61DA",
"S. c #A454BE",
"D. c #783D8B",
"F. c #391C41",
"G. c #492654",
"H. c #A455BE",
"J. c #BB60D8",
"K. c #A856C2",
"L. c #7C408F",
"P. c #2F1C36",
"I. c #34203A",
"U. c #804294",
"Y. c #AF5ACA",
"T. c #6E397F",
"R. c #5E316D",
"E. c #683678",
"W. c #954DAC",
"Q. c #BA5FD6",
"!. c #4D2958",
"~. c #20211F",
"^. c #272926",
"/. c #2D1D31",
"(. c #4F295B",
"). c #1D1C1D",
"_. c #1E191F",
"`. c #0B060D",
"'. c #723B83",
"]. c #AE59C9",
"[. c #B25BCE",
"{. c #311D37",
"}. c #252625",
"|. c gray18",
" X c #1E1A1F",
".X c #160E19",
"XX c #272827",
"oX c #010201",
"OX c #6D397E",
"+X c #844498",
"@X c #B65DD2",
"#X c #462651",
"$X c #181B18",
"%X c #252724",
"&X c #2A1D2E",
"*X c #4B2756",
"=X c #161617",
"-X c #1D181E",
";X c #110913",
":X c #542C61",
">X c #85459A",
",X c #A354BC",
"<X c #964DAD",
"1X c #351E3C",
"2X c #291A2D",
"3X c #773E89",
"4X c #713A83",
"5X c #86459A",
"6X c #A454BD",
"7X c #AE59CA",
"8X c #AB58C6",
"9X c #B35CCF",
"0X c #B55DD1",
"qX c #C163DF",
"wX c #3D2047",
"eX c #7F4292",
"rX c #844599",
"tX c #854599",
"yX c #994FB1",
"uX c #AA58C5",
"iX c #9B50B3",
"pX c #9E51B7",
"aX c #8A479F",
"sX c #301937",
"dX c #683677",
"fX c #7E4191",
"gX c #824395",
"hX c #8A47A0",
"jX c #663476",
"kX c #211126",
"lX c #2D1734",
"zX c #29152F",
"xX c #150B18",
"cX c #311938",
"vX c #783E8A",
"bX c black",
"nX c #3F2149",
"mX c #B65FD3",
"MX c #AE5BC9",
"NX c #8B48A1",
"BX c white",
/* pixels */
"                                                                                                                                ",
"                                                                                                                                ",
"                                                                                                                                ",
"                                                                                                                                ",
"                                                                                                                                ",
"                                                                                                                                ",
"                                                                                                                                ",
"                                                                                                                                ",
"                                                                                                                                ",
"                                                                                                                                ",
"                                                                                                                                ",
"                                                                                                                                ",
"                                                                                                                                ",
"                                                                                                                                ",
"                                                                                                                                ",
"                                                                                                                                ",
"                                                                                                                                ",
"                                                                                                                                ",
"                                                                                                                                ",
"                                                                                                                                ",
"                                                                                                                                ",
"                                                                                                                                ",
"                                                                                                                                ",
"                                                                                                                                ",
"                                                                                                                                ",
"                                                                                                                                ",
"                                                                                                                                ",
"                                                                                                                                ",
"                                                                                                                                ",
"                                                                                                                                ",
"                                                                                                                                ",
"                                                                                                                                ",
"                                                        X o                                                                     ",
"                                                        O +                                                                     ",
"                                                        @ # $             % &                                                   ",
"                                                        * = -           & ; :                                                   ",
"                                                        > , < + 1 2   X 3 4 5                                                   ",
"                                                      6 7 8 i.9 0 q w e r t y                                                   ",
"                                                    u i p p.a.s.d.f.g.a h.s .                                                   ",
"                                                  d f j.k.l.z.x.c.v.b.n.m.g                                                     ",
"                                                  h j M.N.B.V.C.Z.A.S.D.F.k d                                                   ",
"                                                y l G.H.J.K.L.P.I.U.Y.T.R.z x                                                   ",
"                                                c v E.W.Q.Q.!.~.^./.(.)._.`.b                                                   ",
"                                                n m '.f.].[.{.}.|. X.XXXm.oXM                                                   ",
"                                                N B OX+XW.@X#X$X%X&X*X=X-X;XV                                                   ",
"                                                C Z :X>X+X,X<X1X2X3XY.b.4XA S                                                   ",
"                                                  D F L.+X5X6X7X8X9X0XqX4XG H                                                   ",
"                                                  J K wXeXrXtXyXuXiXpXaXL *                                                     ",
"                                                    P I sXdXfXgXtXhXjXU Y                                                       ",
"                                                  T R E i W kXlXzXxXQ ! ~ ^ /                                                   ",
"                                                5 ( = ) _ ` cXT.vX' ] [ { } |                                                   ",
"                                                H  .bXbX..X.nXmXMXo.O.+.bXbXf                                                   ",
"                                                  @.#.bX$.%.&.NXE.*.=.-.bX;.:.                                                  ",
"                                                  >.,.f ~ N <.1.2.3.  4.5.V 6.                                                  ",
"                                                        C 7.] 8.9.0.q.X                                                         ",
"                                                        w.e.# r.@ X.t.y.                                                        ",
"                                                            u.    / /                                                           ",
"                                                                                                                                ",
"                                                                                                                                ",
"                                                                                                                                ",
"                                                                                                                                ",
"                                                                                                                                ",
"                                                                                                                                ",
"                                                                                                                                "
};
