/* XPM */
static char *e094805dc69841769c63c56d3c8e6b55ExrzlPZYaHl88FfL[] = {
/* columns rows colors chars-per-pixel */
"64 64 66 1 ",
"  c black",
". c black",
"X c black",
"o c black",
"O c black",
"+ c black",
"@ c black",
"# c black",
"$ c black",
"% c black",
"& c black",
"* c black",
"= c black",
"- c black",
"; c black",
": c black",
"> c black",
", c None",
"< c black",
"1 c black",
"2 c black",
"3 c black",
"4 c black",
"5 c black",
"6 c black",
"7 c #844498",
"8 c #09070A",
"9 c #BE61DB",
"0 c #2D2D2D",
"q c #BB60D8",
"w c #030203",
"e c #B45CCF",
"r c #0F0911",
"t c #9B50B3",
"y c #924BA8",
"u c #BC60D9",
"i c #B95FD5",
"p c #A755C0",
"a c gray15",
"s c #1A1B1A",
"d c #723B84",
"f c #AE59CA",
"g c #3E2048",
"h c #0F0F0E",
"j c #7F4293",
"k c #462451",
"l c #8A479F",
"z c #6A377B",
"x c #5C2F6A",
"c c #1D0F22",
"v c #170C1B",
"b c #2A1531",
"n c #C263E0",
"m c #4E285A",
"M c #24122A",
"N c #623272",
"B c #783E8B",
"V c #371C40",
"C c #311939",
"Z c #562C63",
"A c #4A494A",
"S c #908F90",
"D c #818181",
"F c DimGray",
"G c gray22",
"H c #717171",
/* pixels */
"                                                                ",
"                                                                ",
"                                                                ",
"                                                                ",
"                                                                ",
"                                                                ",
"                                                                ",
"                                                                ",
"                                                                ",
"                                                                ",
"                                                                ",
"                                                                ",
"                                                                ",
"                                                                ",
"                                                                ",
"                                                                ",
"                                                                ",
"                                                                ",
"                                                                ",
"                                                                ",
"                                                                ",
"                                                                ",
"                                                                ",
"                                                                ",
"                                                                ",
"                                                                ",
"                                                                ",
"                                                                ",
"             @O                                                 ",
"             o=*;#4O     @#>*225;$O                             ",
"              X&6%<:*;#$>1%66ww66-:XO                           ",
"               #368shw%-68bZdjjzmMw,=$                          ",
"                $1wASF06bNf9nnnnufBM6<o                         ",
"                 4=wASG8j79fBZxle99pmw&o                        ",
"                  @=6a8ClypV8hh8mfu9exw<$                       ",
"                  @166v7jex8a00a8d9quek62+                      ",
"                  >6VBytpqgh000a8m9qq9pc%#                      ",
"                 O187nniu9N8aaas8d9qqu9x62                      ",
"                 #%bf9n9qufmr888mfuqifiB8<@                     ",
"                 >6Z9ifeuq9tmcbde9qu7lpjM%#  +#o$   +           ",
"                 *6zBkylpidcrhrcNeuqdpy7V6.O+.%w&.+@*o          ",
"                 26vw6gtBz8sa0as8xi9y777g6%3=%666,>56.          ",
"               OX<6w0sw77rs00000svt9pd77g6rr666666%%6.          ",
"             OX:,w0HSA6mpcs0000as8yiyj77C6xtdgr666666;          ",
"           Oo:,68ADSDA6Vfbh000aahvtt777jcwzen9tkw6%--#          ",
"         Oo:,666w88hhh6kfNc8sssh8xy7777z8vjequ9eC65$$+          ",
"         @X>.5*2==&68cvdfptkvrrbNl77777g6VyiqqifV,o@XO          ",
"                  ;wMtpeqq9ipyyyl77777zr6xltttlNr-$2%$          ",
"                  O:6Zi9uuqiftl777j77BM66bZkgCc865X,%#          ",
"                   #&wNffpty77777777BC63<6666w%<.4:6-$          ",
"                    X-wgB77j777j777zM63$o12..;#@ 4<6<@          ",
"                     X&6vmdj7777jzgr61$  O@533*$  $>X+          ",
"                      $=%6rbgkkVM86-*4    >6666<#               ",
"                       Oo=&,6666%<*#+    +:66666:O              ",
"                         +4o;..;#@       +=66666&4              ",
"                                         #&666663@              ",
"                                         >66666%;               ",
"                                         @166-:X+               ",
"                                          $*.#O                 ",
"                                                                ",
"                                                                ",
"                                                                ",
"                                                                ",
"                                                                "
};
