/* XPM */
static char *_6dcb6953d4b47b8e94ce8f4c9accf29tkfK99aEw75TMxAM[] = {
/* columns rows colors chars-per-pixel */
"64 64 117 2 ",
"   c None",
".  c #000000",
"X  c #060806",
"o  c #070408",
"O  c #0A050B",
"+  c #0B0B0B",
"@  c #0F110F",
"#  c #0E0711",
"$  c #0F0A10",
"%  c #120A15",
"&  c #160C19",
"*  c #190D1D",
"=  c #131413",
"-  c #181917",
";  c #1A1B19",
":  c #1C0F21",
">  c #1E1023",
",  c #211126",
"<  c #25132B",
"1  c #28152F",
"2  c #2B1632",
"3  c #2F1836",
"4  c #331A3B",
"5  c #242424",
"6  c #2C2C2C",
"7  c #353535",
"8  c #3A1E43",
"9  c #3E2047",
"0  c #3F2049",
"q  c #43224E",
"w  c #462451",
"e  c #4B2656",
"r  c #4E285A",
"t  c #51295D",
"y  c #542B61",
"u  c #592E66",
"i  c #5B2F69",
"p  c #5E316D",
"a  c #60326F",
"s  c #653474",
"d  c #6B377B",
"f  c #6E397F",
"g  c #4C4B4C",
"h  c gray34",
"j  c #666566",
"k  c #6E6D6E",
"l  c #737373",
"z  c #7A7A7A",
"x  c #743C86",
"c  c #773D8A",
"v  c #793E8B",
"b  c #7E4292",
"n  c #834497",
"m  c #854599",
"M  c #89479E",
"N  c #8E49A4",
"B  c #904AA7",
"V  c #954DAC",
"C  c #984FAF",
"Z  c #994EB0",
"A  c #9C51B5",
"S  c #9F52B8",
"D  c #A253BB",
"F  c #A052B9",
"G  c #A354BD",
"H  c #A455BE",
"J  c #A555BE",
"K  c #A655C0",
"L  c #A756C1",
"P  c #A856C2",
"I  c #A957C3",
"U  c #AA57C4",
"Y  c #AA58C5",
"T  c #AB58C6",
"R  c #AC58C6",
"E  c #AC58C7",
"W  c #AD59C8",
"Q  c #AE5AC9",
"!  c #AF5ACA",
"~  c #B05ACB",
"^  c #B05BCC",
"/  c #B15BCC",
"(  c #B15BCD",
")  c #B35CCF",
"_  c #B15CCC",
"`  c #B45CD0",
"'  c #B45DD0",
"]  c #B55DD1",
"[  c #B65ED2",
"{  c #B75ED3",
"}  c #B75ED4",
"|  c #B65FD2",
" . c #B85FD5",
".. c #B95FD6",
"X. c #BA5FD7",
"o. c #B85FD4",
"O. c #BA60D7",
"+. c #B961D6",
"@. c #BB60D8",
"#. c #BB60D9",
"$. c #BC60D9",
"%. c #BC61D9",
"&. c #BC61DA",
"*. c #BD61DA",
"=. c #BD61DB",
"-. c #BE61DB",
";. c #BE62DC",
":. c #BF62DC",
">. c #BC62D9",
",. c #C062DD",
"<. c #C063DD",
"1. c #C063DE",
"2. c #C064DE",
"3. c #C264E0",
"4. c #C265E0",
"5. c #808080",
"6. c #9A9A9A",
/* pixels */
"                                                                                                                                ",
"                                                                                                                                ",
"                                                                                                                                ",
"                                                                                                                                ",
"                                                                                                                                ",
"                                                                                                                                ",
"                                                                                                                                ",
"                                                                                                                                ",
"                                                                                                                                ",
"                                                                                                                                ",
"                                                                                                                                ",
"                                                                                                                                ",
"                                                                                                                                ",
"                                                                          .                                                     ",
"                                                                        . .                                                     ",
"                                                                        . .                                                     ",
"                                        . .                           . . .                                                     ",
"                                        . .                         . . . .                                                     ",
"                                          . .                       . . . .                                                     ",
"                                          . . .                   . . 5 . .                                                     ",
"                                          . = X .       . . . . . . 5 j . .                                                     ",
"                                          . 7 g . . . . o , 8 0 . . l z . . .                                                   ",
"                                          . 5 6.7 . o w M R ..s . 7 6.k . . . .                                                 ",
"                                          . = 5.l + % F 3.;.L : . g z h . 4 q . .                                               ",
"                                            X 5 ; . q ^ 3.<.P p o . = ; . e _ u . .                                             ",
"                                          . . o , i V J <.;.A C b 3 O . O i $.{ e . .                                           ",
"                                          . o s M n N { @.$...n N U Z N C Q @.$.V * .                                           ",
"                                        . . q N B U $.@.$.F d y e s n M V ^ $...C y . .                                         ",
"                                        . O v p q d ~ $.V , + + + 0 C S Q +.@.{ N v * .                                         ",
"                                        . * 1 + = + t R 4 @ 6 6 5 + d ;.$.@.$.P m m 8 .                                         ",
"                                        . . + 5 6 5 % a $ 5 6 6 6 = 2 ^ $.@.+.C n m t . .                                       ",
"                                        . . = 6 6 5 + , + 6 6 6 6 ; & F $.$.^ M n m p . .                                       ",
"                                        . . = 6 6 5 + < + 6 6 6 5 - & F $.@.S n n m p . .                                       ",
"                                        . O + 5 5 = % s + 5 6 5 5 = 2 ~ $.Q M n n m u . .                                       ",
"                                        . 1 4 X + o i R 3 = 5 5 ; X s $...V n n n m q .                                         ",
"                                        . & N d r c { $.N > X + X q Q $.S m n n n b < .                                         ",
"                                        . . d <.$.$.$.@.$.S s t c ^ $.J m n n n m s o .                                         ",
"                                          . , L $.@.$.$.$.$.$.$.;.@.G m n n n n n 4 . .                                         ",
"                                          . . t } $.Q n B ^ $.$.{ S m n n n n m y . .                                           ",
"                                            . . s ..C m B N Q T B n n n n n m p # .                                             ",
"                                              . o u T <.+.P B m n n n n m n y # . .                                             ",
"                                                . . 4 x M m m m m m m b s 4 . . .                                               ",
"                                                  . . . : 9 y a s u w 1 o . .                                                   ",
"                                                .     . . . . . . . . . . .         .                                           ",
"                                        . . . . . .   . o r e 8 8 4 , . .   . . . . . .                                         ",
"                                        . . . . . . . . . m 2.+...C 9 .   . . . . . . . .                                       ",
"                                      . . . . . . . . . . i 3.@.+.V 3 .   . . . . . . .                                         ",
"                                      . . . . . . .     . 2 { $.} m : .   . . . . . . .                                         ",
"                                        . . . . . .     . . b 2._ s o .   . . . . . . .                                         ",
"                                        . . . . .         . : f s : . .     . . . . .                                           ",
"                                            . .           . . . . . .         . . .                                             ",
"                                                          .   . .                                                               ",
"                                                      . . . .     . . . .                                                       ",
"                                                    . . . . .   . . . . .                                                       ",
"                                                    . . . .       . . .                                                         ",
"                                                                                                                                ",
"                                                                                                                                ",
"                                                                                                                                ",
"                                                                                                                                ",
"                                                                                                                                ",
"                                                                                                                                ",
"                                                                                                                                ",
"                                                                                                                                ",
"                                                                                                                                "
};
