/* XPM */
static char *dc4cf7be782d4fc5a0690a533f41f5f5GvC2xWjXj7mNRti8[] = {
/* columns rows colors chars-per-pixel */
"64 64 112 2 ",
"   c None",
".  c #000000",
"X  c #070806",
"o  c #080A07",
"O  c #070308",
"+  c #0A050C",
"@  c #0B0A0B",
"#  c #0F110E",
"$  c #0E0711",
"%  c #0F0812",
"&  c #110A14",
"*  c #160B19",
"=  c #190D1D",
"-  c #141413",
";  c #161816",
":  c #1C1C1C",
">  c #1F201F",
",  c #20201F",
"<  c #1C0E21",
"1  c #1F1024",
"2  c #211126",
"3  c #25132A",
"4  c #28152E",
"5  c #2A1631",
"6  c #301938",
"7  c #242423",
"8  c #2D2D2D",
"9  c #333333",
"0  c #3A1E43",
"q  c #3E2047",
"w  c #3F2048",
"e  c #41224B",
"r  c #492654",
"t  c #4E285A",
"y  c #51295E",
"u  c #552C62",
"i  c #5B2F69",
"p  c #5E306C",
"a  c #663575",
"s  c #6A367A",
"d  c #6D387D",
"f  c #5D5D5D",
"g  c #646464",
"h  c #6C6B6C",
"j  c #706F70",
"k  c gray46",
"l  c #7E7E7E",
"z  c #723B84",
"x  c #773D89",
"c  c #7A3F8D",
"v  c #7C408F",
"b  c #7E4192",
"n  c #824496",
"m  c #854599",
"M  c #8A479F",
"N  c #8B47A0",
"B  c #8E4AA4",
"V  c #944CAB",
"C  c #9A4FB1",
"Z  c #9E51B7",
"A  c #9E51B6",
"S  c #9C50B4",
"D  c #9C51B4",
"F  c #9F52B8",
"G  c #A052B9",
"H  c #A254BC",
"J  c #A454BD",
"K  c #A555BE",
"L  c #A655BF",
"P  c #A355BC",
"I  c #A756C1",
"U  c #A856C2",
"Y  c #A957C3",
"T  c #A957C4",
"R  c #AB58C5",
"E  c #AB58C6",
"W  c #AD59C7",
"Q  c #AD59C8",
"!  c #AE59C9",
"~  c #AF5ACA",
"^  c #AE5AC9",
"/  c #B15BCC",
"(  c #B25BCD",
")  c #B25CCE",
"_  c #B35CCE",
"`  c #B35CCF",
"'  c #B45CD0",
"]  c #B45DD0",
"[  c #B55DD1",
"{  c #B75ED4",
"}  c #B85ED4",
"|  c #B85ED5",
" . c #B95FD5",
".. c #BA5FD6",
"X. c #BA5FD7",
"o. c #BA60D7",
"O. c #B860D5",
"+. c #BB60D8",
"@. c #BB60D9",
"#. c #BC60D9",
"$. c #BC61D9",
"%. c #BD61DA",
"&. c #BD61DB",
"*. c #BE61DB",
"=. c #BC61D9",
"-. c #C063DD",
";. c #C063DE",
":. c #C163DF",
">. c #C064DE",
",. c #858485",
"<. c #868586",
"1. c #929292",
/* pixels */
"                                                                                                                                ",
"                                                                                                                                ",
"                                                                                                                                ",
"                                                                                                                                ",
"                                                                                                                                ",
"                                                                                                                                ",
"                                                                                                                                ",
"                                                                                                                                ",
"                                                                                                                                ",
"                                                                                                                                ",
"                                                                                                                                ",
"                                                                                                                                ",
"                                              .                                                                                 ",
"                                                .                                                                               ",
"                                                . . .                                                                           ",
"                                                . . . .                                                                         ",
"                                                  . - @ .                                                                       ",
"                                                  . : h : .                                                                     ",
"                                                    . k ,.7 . . . . .                                                           ",
"                                                    . 9 ,.9 . $ + + O . . .                                                     ",
"                                                  . . o > . e z n b 0 + . . .                                                   ",
"                                              . . + 0 $ * u M n M 2 + @ . . . . .                                               ",
"                                            . . * c _ V V N m Q 0 # 8 8 7 o < = . .                                             ",
"                                            . & m &.:.:.R Y +._ 5 : 8 8 8 > = z = .                                             ",
"                                          . O d &.+.:.:.&.&.&.&.y @ 7 8 8 > + V c O .                                           ",
"                          . . . . . . . . . + 0 e b I  .&. .L C m 2 o - ; o 5 W { e .                                           ",
"                            . . . . . X . . . . . w V G Q u = & = 2 2 2 = 0 V &.&.N + .                                         ",
"                              . . . . 9 j l k f X 5 S n y o > 7 7 - & a I ' &.+.&./ 5 .                                         ",
"                                  . . X 9 l 1.g X 5 L p * , 8 8 8 8 : * C &.+.&.+.&.y .                                         ",
"                                      . . X 9 9 . r Y u & 7 8 8 8 8 8 @ i &.&.R x Y s . .                                       ",
"                                      . . O . . + M V v 5 - 8 8 8 8 8 # e o.&.n N &.z . .                                       ",
"                                      . . y i * i Q x Q c + - 7 7 7 : X i &.+.m / ' i . .                                       ",
"                                        . u &.F _ S L &. .s & o # # X 3 F &.+.S I B q .                                         ",
"                                        . 6 ' &.+. .&.+.&.o.V y 6 6 u S &.&.' S m b 3 .                                         ",
"                                        . $ V &.&.&.+.+.+.+.&.&.' ' &.&.' L B n m s + .                                         ",
"                                        . . e V H Q '  . .o.o. . ._ T S B n n n n q . .                                         ",
"                                          . + a m m M B V V V V B M m n n n n m a + .                                           ",
"                                          . . 1 z m n n n n n n n n n n n n m z 1 . .                                           ",
"                                            . . 3 z m n n n n n n n n n n m z 4 . .                                             ",
"                                              . . = i b m m n n n n m m b i = . .                                               ",
"                                                . . O 5 u z b n n b z u 5 O . .                                                 ",
"                                                    . . . % 1 4 4 1 $ . . . .                                                   ",
"                                                        . . . . . O & 4 i 2 .                                                   ",
"                                                            . * i d n S o.t . . . .                                             ",
"                                                          . . 4 b G o.+.>.x . . . . .                                           ",
"                                                            . . r V o.+.>.V + . . . .                                           ",
"                                                              . + a L &.&.S % . . . .                                           ",
"                                                      . . . . . . 2 b Q >.B + . . . .                                           ",
"                                                . . . . . . .   . . 5 z M 0 . . . .                                             ",
"                                                . . . . . . . .   . . + + . . . . . . .                                         ",
"                                                . . . . . . . .     . . . .   . . . . .                                         ",
"                                                . . . . . . .                   . .                                             ",
"                                                    . . . . .       . . . . .                                                   ",
"                                                      . . .         . . . .                                                     ",
"                                                                    . .                                                         ",
"                                                                                                                                ",
"                                                                                                                                ",
"                                                                                                                                ",
"                                                                                                                                ",
"                                                                                                                                ",
"                                                                                                                                ",
"                                                                                                                                ",
"                                                                                                                                ",
"                                                                                                                                "
};
