/* XPM */
static char *cdebf424905d4e0af1c806800a275f58kzMDAfXOkQ2iHhuJ[] = {
/* columns rows colors chars-per-pixel */
"64 64 113 2 ",
"   c None",
".  c #000000",
"X  c #070907",
"o  c #0A050C",
"O  c #0C0B0C",
"+  c #0E0711",
"@  c #0F0A11",
"#  c #110A14",
"$  c #160C19",
"%  c #190E1D",
"&  c #131513",
"*  c #161816",
"=  c #1C1C1B",
"-  c #1D0F21",
";  c #1F1024",
":  c #221127",
">  c #25132B",
",  c #2B1632",
"<  c #2F1936",
"1  c #301937",
"2  c #331A3B",
"3  c #242524",
"4  c #2C2C2C",
"5  c gray20",
"6  c #3E3E3E",
"7  c #3B1E44",
"8  c #3D2046",
"9  c #3F2049",
"0  c #42224C",
"q  c #492554",
"w  c #4C2758",
"e  c #4D2859",
"r  c #50295C",
"t  c #562C63",
"y  c #592E67",
"u  c #5D306B",
"i  c #60316F",
"p  c #623372",
"a  c #673578",
"s  c #6B377B",
"d  c #444444",
"f  c #4C4C4C",
"g  c #5A5A5A",
"h  c gray40",
"j  c #767576",
"k  c #6F3A80",
"l  c #733C85",
"z  c #763D89",
"x  c #793F8B",
"c  c #7C418F",
"v  c #7F4292",
"b  c #824496",
"n  c #854599",
"m  c #89479D",
"M  c #8D49A3",
"N  c #904BA7",
"B  c #944CAB",
"V  c #9A4FB2",
"C  c #9D51B5",
"Z  c #9F53B8",
"A  c #A555BF",
"S  c #A454BD",
"D  c #A254BB",
"F  c #A655C0",
"G  c #A756C1",
"H  c #A856C2",
"J  c #A857C2",
"K  c #A957C3",
"L  c #AA57C5",
"P  c #AB58C5",
"I  c #AB58C6",
"U  c #AC58C7",
"Y  c #AD59C7",
"T  c #AD59C8",
"R  c #AE5AC9",
"E  c #AF5ACA",
"W  c #B05ACB",
"Q  c #B15BCC",
"!  c #B25BCD",
"~  c #B25BCE",
"^  c #B25CCE",
"/  c #B35CCF",
"(  c #B45CD0",
")  c #B45DD0",
"_  c #B55DD1",
"`  c #B65DD2",
"'  c #B65ED3",
"]  c #B75ED3",
"[  c #B75ED4",
"{  c #B75FD4",
"}  c #B85ED4",
"|  c #B85FD5",
" . c #B95FD5",
".. c #B95FD6",
"X. c #BA5FD6",
"o. c #BA60D7",
"O. c #BA61D6",
"+. c #BB60D8",
"@. c #BC60D9",
"#. c #BC61D9",
"$. c #BC61DA",
"%. c #BD61DA",
"&. c #BE61DB",
"*. c #BE62DC",
"=. c #BF62DC",
"-. c #BE62DB",
";. c #C063DE",
":. c #C163DF",
">. c #C264E0",
",. c #C365E1",
"<. c #909090",
"1. c #959595",
"2. c #9D9C9D",
/* pixels */
"                                                                                                                                ",
"                                                                                                                                ",
"                                                                                                                                ",
"                                                                                                                                ",
"                                                                                                                                ",
"                                                                                                                                ",
"                                                                                                                                ",
"                                                                                                                                ",
"                                                                                                                                ",
"                                                                                                                                ",
"                                                                                                                                ",
"                                                                                                                                ",
"                                                                                                                                ",
"                                                                                                                                ",
"                                                      .                                                                         ",
"                                                      .                                                                         ",
"                                                      . .                                                                       ",
"                                                      . .                         .                                             ",
"                                                      . . .                     . .                                             ",
"                                                      . X . .                   . .                                             ",
"                                                      . 5 = . . . . .         . . .                                             ",
"                                                    . . f h . . + . . . .   . = 4 .                                             ",
"                                                  . . . f 2.3 o x M p > . . X j 5 .                                             ",
"                                                . . - . 6 <.g . w #.#.Y 0 . f 1.= .                                             ",
"                                              . . q n o 3 d 3 . 0 / ;.;.t . d g O                                               ",
"                                              . 7 Q B o . . . 0 B J >.} V 7 . . .                                               ",
"                                            . $ B =.Y p 0 w v D b Q #.} N m l 0 . .                                             ",
"                                          . . q G #.o.T I L m p A #.+.#.} B b z - .                                             ",
"                                          . # l C +.+.G s : o $ a ( #.( B N W ( s .                                             ",
"                                          . < b M } #.( 7 O 3 = O l ( t @ O e ( Z # .                                           ",
"                                          . q n n T =.m O 3 4 4 = < z O 3 3 O z ( , .                                           ",
"                                          . y n b Z =.i O 4 4 4 3 $ < & 4 4 * 0 } 9 .                                           ",
"                                        . . u n b M } t O 4 4 4 4 # $ & 4 4 = 2 [ q .                                           ",
"                                          . u n b n G p O 3 4 4 3 $ 1 O 3 4 & q o.0 .                                           ",
"                                          . r n b b N b O = 3 4 = 1 b @ & = O b } 1 .                                           ",
"                                          . 7 n b b b B 9 X * & O z +.s % % p } G % .                                           ",
"                                          . % x n b b m N 0 $ ; s ( #.o.A A } =.b . .                                           ",
"                                          . . y n b b b M J D J +.#.+.+.#.#.#.[ 0 .                                             ",
"                                            . : x n b b b M T #.#.Q Q +.+.+.#.n o .                                             ",
"                                            . . 0 b b b b b m D N l k T #.#.G , .                                               ",
"                                              . . e b n b b b c n I Y / =.J 7 . .                                               ",
"                                                . . 9 x n n b b b m C Y N 1 . .                                                 ",
"                                                  . . - e k c b v x p 8 # . .                                                   ",
"                                                    . . . o - > > $ . . . .                                                     ",
"                                          . .   .     . . o o . . # - . .   . . .   .                                           ",
"                                        . . . . . . . . . q b M N D z . . . . . . . . .                                         ",
"                                        . . . . . . . . . 0 Z =.#.>.u . . . . . . . . . .                                       ",
"                                        . . . . . . . . . 1 B o.#.o.< .     . . . . . . .                                       ",
"                                        . . . . . . .   . % n [ =.N o .     . . . . . . .                                       ",
"                                          . . . . .     . . e Z A 7 . .     . . . . . .                                         ",
"                                            . . . .       . . ; - . .         . . . .                                           ",
"                                                            . . . .                                                             ",
"                                                  . .                 . . .                                                     ",
"                                                  . . . .             . . . .                                                   ",
"                                                  . . . .             . . . . .                                                 ",
"                                                                                                                                ",
"                                                                                                                                ",
"                                                                                                                                ",
"                                                                                                                                ",
"                                                                                                                                ",
"                                                                                                                                ",
"                                                                                                                                ",
"                                                                                                                                ",
"                                                                                                                                "
};
