/* XPM */
static char *ba1e5731df614bb1fa86777d344e199erVUoLBfo3iC5BVYa[] = {
/* columns rows colors chars-per-pixel */
"64 64 62 1 ",
"   c black",
". c black",
"X c black",
"o c black",
"O c black",
"+ c black",
"@ c black",
"# c black",
"$ c black",
"% c None",
"& c black",
"* c black",
"= c black",
"- c black",
"; c black",
": c black",
"> c black",
", c black",
"< c black",
"1 c black",
"2 c black",
"3 c black",
"4 c black",
"5 c black",
"6 c black",
"7 c black",
"8 c black",
"9 c #834497",
"0 c #BC60DA",
"q c #0B070D",
"w c #2C2C2C",
"e c #86459B",
"r c #B35CCF",
"t c #B95FD6",
"y c #944CAC",
"u c #0E0F0E",
"i c #150B18",
"p c gray14",
"a c #351B3D",
"s c #9B4FB3",
"d c #231228",
"f c #783E8B",
"g c #C063DE",
"h c #171817",
"j c #A756C1",
"k c #8B47A1",
"l c #3E2048",
"z c #1B0E20",
"x c #2C1633",
"c c #673577",
"v c #5E306D",
"b c #A153BB",
"n c #AD59C8",
"m c #4C2758",
"M c #7E4192",
"N c #703981",
"B c #572D65",
"V c gray40",
"C c #8D8D8D",
"Z c #3F3F3F",
"A c #515151",
"S c #9F9F9F",
/* pixels */
"                                                                ",
"                                                                ",
"                                                                ",
"                                                                ",
"                                                                ",
"                                                                ",
"                                                                ",
"                                                                ",
"                                                                ",
"                                                                ",
"                                                                ",
"                          =#                                    ",
"                          O5                                    ",
"                          :X$              --                   ",
"                          :8&             -5*                   ",
"                          :8+;            57$                   ",
"                          O88:           =2<                    ",
"                          O88o3         *X8O                    ",
"                          O8h8<==;$    #,88&                    ",
"                          O8Ap%oo2.,5$ >@q@4                    ",
"                        #6+8VV%8dzq8@XOowZo=                    ",
"                       *1@88VSw8vnycx%8hCZ+*                    ",
"                      ;78zx8ACV8zbggbd%VCpX#                    ",
"                     $<8xsv8pwu8abggrl8wZu1                     ",
"                     O8dbgv888qmss0gnylq88,                     ",
"                    =oqf00jfcNsbMn00rke9vq2=                    ",
"                    ,8ayt0rbsyMBNkn00tse9a8:                    ",
"                   *+qckr0tjkeBiqqas0tycfeq+*                   ",
"                   4@dM9j000gyihwpuarfiqqad@4                   ",
"                   >8le9yt00tmuwwwpqNdhwpqq8&                   ",
"                   :8me9er00ndhwwwwuxqpwwh88O                   ",
"                   ,8Be99s00nzhwwwwhzqpwwh88:                   ",
"                   :8me99kr0rxupwwwumihwwu%8O                   ",
"                   >8l9999yt0c%hpwhiym%uuzx8&                   ",
"                   4@dM9999b0na%uuqc0nvxl9x@3                   ",
"                   *+qce999ej0jBxaft000rtkq.$                   ",
"                    O8a99999ej00rt0000t0tl8O                    ",
"                    =2%Be9999ebt00tjsr00f%+;                    ",
"                     >%ice99999yrryMNkgyz@&                     ",
"                     #18iv999999kyj00rez8,#                     ",
"                      $18qlf9e9999kssvq%1$                      ",
"                       $Oo8ilvNffNvli8o>#                       ",
"                    #53 #4<@88qqqq888<56*--                     ",
"                   $,@2<7O;,8qzzzdaqo6X%.<7&#                   ",
"                   &888888<&%aejjryq+X88888%>                   ",
"                   &888888o>@dkt0gf81<888888X#                  ",
"                   ;288888o62i9r0gm8&6%88888X#                  ",
"                    ,88888.;.%cngbi2=*+88888:                   ",
"                    32888@6 O8dfyl81- >%888+=                   ",
"                     4.o+&- *.8qq8.;  #>+oX3                    ",
"                      $=*  ;43:..1>;    *=$                     ",
"                          -1@X&*#6@+O;                          ",
"                          $+888<$,888+3                         ",
"                          #OX..1*5X..X4                         ",
"                            $$$-  #$$#                          ",
"                                                                ",
"                                                                ",
"                                                                ",
"                                                                ",
"                                                                ",
"                                                                ",
"                                                                ",
"                                                                ",
"                                                                "
};
