/* XPM */
static char *d4a664c40dd1430acab03f901968bb39LFH9zDwrWDjAOkjm[] = {
/* columns rows colors chars-per-pixel */
"64 64 185 2 ",
"   c None",
".  c black",
"X  c #010101",
"o  c #020202",
"O  c #040404",
"+  c gray2",
"@  c #070707",
"#  c #0C0C0C",
"$  c gray5",
"%  c #101010",
"&  c #111111",
"*  c gray7",
"=  c #1B1B1B",
"-  c gray11",
";  c #1D1D1D",
":  c gray13",
">  c #222222",
",  c #232323",
"<  c #2D2D2D",
"1  c #2F2F2F",
"2  c #313131",
"3  c #323232",
"4  c #343434",
"5  c gray23",
"6  c #3C3C3C",
"7  c #3E3E3E",
"8  c #3F3F3F",
"9  c #434343",
"0  c gray27",
"q  c #464646",
"w  c #484848",
"e  c #494949",
"r  c gray29",
"t  c #4B4B4B",
"y  c #4C4C4C",
"u  c gray30",
"i  c #505050",
"p  c #515151",
"a  c #555555",
"s  c #565656",
"d  c gray34",
"f  c #5A5A5A",
"g  c #5B5B5B",
"h  c #5D5D5D",
"j  c gray37",
"k  c #5F5F5F",
"l  c #606060",
"z  c #626262",
"x  c gray39",
"c  c #646464",
"v  c #656565",
"b  c gray40",
"n  c #676767",
"m  c #686868",
"M  c DimGray",
"N  c #6A6A6A",
"B  c gray42",
"V  c #6D6D6D",
"C  c #6F6F6F",
"Z  c gray44",
"A  c #717171",
"S  c #727272",
"D  c gray45",
"F  c #747474",
"G  c #767676",
"H  c #777777",
"J  c gray47",
"K  c #797979",
"L  c #7B7B7B",
"P  c #7C7C7C",
"I  c gray49",
"U  c #7E7E7E",
"Y  c gray50",
"T  c #808080",
"R  c #818181",
"E  c gray51",
"W  c #838383",
"Q  c #848484",
"!  c gray52",
"~  c #888888",
"^  c #898989",
"/  c gray54",
"(  c #8B8B8B",
")  c gray55",
"_  c #8D8D8D",
"`  c #8E8E8E",
"'  c gray56",
"]  c #909090",
"[  c gray57",
"{  c #929292",
"}  c #939393",
"|  c gray58",
" . c #959595",
".. c gray59",
"X. c #989898",
"o. c gray60",
"O. c #9A9A9A",
"+. c #9B9B9B",
"@. c #9D9D9D",
"#. c #9F9F9F",
"$. c #A2A2A2",
"%. c gray64",
"&. c #A4A4A4",
"*. c #A5A5A5",
"=. c #A7A7A7",
"-. c gray66",
";. c #A9A9A9",
":. c gray67",
">. c #ACACAC",
",. c gray68",
"<. c #AEAEAE",
"1. c #AFAFAF",
"2. c gray69",
"3. c #B1B1B1",
"4. c #B2B2B2",
"5. c gray70",
"6. c #B4B4B4",
"7. c gray71",
"8. c #B6B6B6",
"9. c #B7B7B7",
"0. c gray72",
"q. c #B9B9B9",
"w. c gray73",
"e. c #BBBBBB",
"r. c #BCBCBC",
"t. c gray74",
"y. c gray",
"u. c gray75",
"i. c #C0C0C0",
"p. c #C1C1C1",
"a. c gray76",
"s. c #C3C3C3",
"d. c gray77",
"f. c #C5C5C5",
"g. c gray78",
"h. c #CACACA",
"j. c #CBCBCB",
"k. c gray80",
"l. c #CECECE",
"z. c gray81",
"x. c #D0D0D0",
"c. c #D2D2D2",
"v. c LightGray",
"b. c gray83",
"n. c #D5D5D5",
"m. c gray84",
"M. c #D7D7D7",
"N. c #D8D8D8",
"B. c gray85",
"V. c #DADADA",
"C. c gray86",
"Z. c gainsboro",
"A. c #DDDDDD",
"S. c gray87",
"D. c #DFDFDF",
"F. c gray88",
"G. c #E1E1E1",
"H. c #E4E4E4",
"J. c gray90",
"K. c #E6E6E6",
"L. c #E7E7E7",
"P. c gray91",
"I. c #E9E9E9",
"U. c #EAEAEA",
"Y. c gray92",
"T. c #ECECEC",
"R. c gray93",
"E. c #EEEEEE",
"W. c #EFEFEF",
"Q. c gray94",
"!. c #F1F1F1",
"~. c gray95",
"^. c #F3F3F3",
"/. c #F4F4F4",
"(. c gray96",
"). c #F6F6F6",
"_. c gray97",
"`. c #F8F8F8",
"'. c #F9F9F9",
"]. c gray98",
"[. c #FBFBFB",
"{. c gray99",
"}. c #FDFDFD",
"|. c #FEFEFE",
" X c white",
/* pixels */
"                                                                                                                                ",
"                                                                                                                                ",
"                                                                                                                                ",
"                                                                                                                                ",
"                                                                                                                                ",
"                                                                                                                                ",
"                                                                                                                                ",
"                                                                                                                                ",
"                                                                                                                                ",
"                                                           X X X X X X X X                                                      ",
"                                                       X X X X X X X X X X X X                                                  ",
"                                                     X X X X X X X X X X X X X X X                                              ",
"                                                   X X X X X X X X X X X X X X X X X X                                          ",
"                                                J -.D. X X X X X X X X X X X X X X'.D.                                          ",
"                                            -.c c c S @.n.'. X X X X X X X X X XI.d.6.                                          ",
"                                       X X/.O.S c c c c V { j./. X X X X X X/.v.6.3.                                            ",
"                                   X X X Xn.R I F m c c c c m ^ p.W. X X'.G.t.3.3.6.                                            ",
"                               X X X X X Xv.R I I J m c c c c c c I 6.D.j.6.3.3.3.z.                                            ",
"                           X X X X X X X X/.&.I I I J V m c c c c c c { 6.3.3.6.&.z. X X                                        ",
"                       X X X X X X X X X X XW.-.R I I I F m c c c c c R 3.3.3.<.{ D. X X X X                                    ",
"                  W. X X X X X X X X X X X X X'.d.^ I I R I S m c c c J 3.6.3...O./. X X X X X                                  ",
"              c m ` N. X X X X X X X X X X X X X XD.O.I I R R I S m c S -.3...R z. X X X X X X X X                              ",
"          c c c c c S 3./. X X X X X X X X X X X X X~.t.^ I I R I J S S O.{ R 0. X X X X X X X X X X                            ",
"        c c c c c c c c ` N. X X X X X X X X X X X X X XH.3.` R I I I I I ^ d.'. X X X X X X X X X X X                          ",
"        t c c c c c c c c S 3./. X X X X X X X X X X X X X XW.v.<...! I ..N. X X X X X X X X X X X X X X X                      ",
"        + 8 x c c c c c c c c ` N. X X X X X X X X X X X X X X X X/.G.z.I. X'./.W.H.D.v.j./. X X X X X X X X                    ",
"            < j c c c c c c c c S 3.~. X X XI. X X X X X X X X X X X/.I.N.z.p.6.<.&.%.` V ~. X X X X X X X X X                  ",
"          X   ; a c c c c c c c c c ^ n. X XG.H. X X X X X X X X X X X'.'.'.'. X X X/.R ^ ~.~./. X X X X X X X/.                ",
"          X X   % y c c c c c c c c c S 3.~./.p. X X X X X X X X X X X X X X X X X XD.@.0.v.D.I.'. X X X'.H.v.t.6.3.            ",
"            X X   + 8 x m c c c c c c c c ^ N.0.D. X X X X X X X X X X X X X X X X X X X X X X X X'.W.n.p.6.3.3.3.3.3.          ",
"            X X X X X 2 j m c c c c c c x j m R O. X X X X X X X X X X X X X X X X X X X X X XW.N.p.6.3.3.3.3.3.3.3.3.3.        ",
"              X X X X   ; a c c c c c x f a i t j z. X X X X X X X X X X X X X X X X X X~.D.d.0.3.3.3.3.3.3.3.3.3.3.3.3.3.      ",
"                X X X X   $ q c c c c c c c m m c S 3.~. X X X X X X X X X X X X X/.G.j.0.3.3.6.6.6.3.6.6.6.3.3.3.3.3.6.3.-.    ",
"                    X X X   X 2 j c c c c c c c c c c ^ n. X X X X X X X X X/.H.z.t.3.3.3.3.6.6.3.3.6.6.6.6.3.3.3.6.<...F       ",
"                      X X X X   = i c c c c c c c c c c S <.~. X X X X'.I.v.t.6.3.3.3.3.3.3.6.6.3.3.3.3.6.3.6.6.<.^ i           ",
"                        X X X X   + 5 j c c c c c c c c c c ^ n.'.W.n.p.6.3.3.6.3.3.3.3.3.3.3.6.3.3.3.3.6.6.-.R 8               ",
"                            X X X X   ; i c c c c c c c c c c F 3.0.3.3.3.3.3.6.3.3.3.3.6.3.3.3.3.3.6.3.%.F 2                   ",
"                              X X X X   + 4 f c c c c c c c c V &.6.3.3.3.3.6.6.3.3.3.3.3.3.3.6.6.<.O.c >                       ",
"                                X X X X X   % 9 x m c c c c c S -.6.3.3.3.6.6.6.3.3.6.3.6.6.3.%.R t %                           ",
"                                    X X X X     ; t x m c c c S <.3.3.3.3.6.6.6.6.6.6.<.%.! f >                                 ",
"                                        X X X X   X > y x c c F <.3.3.6.6.6.3.<.&.{ S t ; X                                     ",
"                                            X X X X   X > t j I 3.3.<.&.O.! m q > @ X                                           ",
"                                                X X X X   X ; i V a 5 > $ X   X                                                 ",
"                                                      X X X           X X                                                       ",
"                                                            X X X X                                                             ",
"                                                                                                                                ",
"                                                                                                                                ",
"                                                                                                                                ",
"                                                                                                                                ",
"                                                                                                                                ",
"                                                                                                                                ",
"                                                                                                                                ",
"                                                                                                                                ",
"                                                                                                                                ",
"                                                                                                                                ",
"                                                                                                                                ",
"                                                                                                                                ",
"                                                                                                                                ",
"                                                                                                                                ",
"                                                                                                                                ",
"                                                                                                                                ",
"                                                                                                                                ",
"                                                                                                                                ",
"                                                                                                                                "
};
