/* XPM */
static char *a6c8c5268f404e67efa99938ec613fd3rLJ4DtJtjqplQEcJ[] = {
/* columns rows colors chars-per-pixel */
"64 64 133 2 ",
"   c None",
".  c black",
"X  c #010101",
"o  c #020202",
"O  c gray1",
"+  c #040404",
"@  c #090909",
"#  c gray4",
"$  c #0C0C0C",
"%  c #0E0E0E",
"&  c gray8",
"*  c #151515",
"=  c gray9",
"-  c #181818",
";  c #1B1B1B",
":  c #1D1D1D",
">  c gray12",
",  c gray13",
"<  c #252525",
"1  c #282828",
"2  c #2C2C2C",
"3  c #2D2D2D",
"4  c #2F2F2F",
"5  c #313131",
"6  c #373737",
"7  c gray22",
"8  c #3C3C3C",
"9  c gray24",
"0  c #3E3E3E",
"q  c #3F3F3F",
"w  c #414141",
"e  c gray26",
"r  c #434343",
"t  c gray27",
"y  c #484848",
"u  c #4C4C4C",
"i  c gray30",
"p  c #4E4E4E",
"a  c gray31",
"s  c #505050",
"d  c #535353",
"f  c gray33",
"g  c gray34",
"h  c #585858",
"j  c gray35",
"k  c gray36",
"l  c #5D5D5D",
"z  c gray37",
"x  c #5F5F5F",
"c  c #606060",
"v  c gray38",
"b  c #626262",
"n  c gray39",
"m  c #646464",
"M  c #656565",
"N  c gray40",
"B  c #676767",
"V  c DimGray",
"C  c #6D6D6D",
"Z  c gray43",
"A  c #6F6F6F",
"S  c gray44",
"D  c #727272",
"F  c gray46",
"G  c #767676",
"H  c gray47",
"J  c #797979",
"K  c #7B7B7B",
"L  c #7E7E7E",
"P  c #808080",
"I  c #898989",
"U  c gray54",
"Y  c #8B8B8B",
"T  c gray57",
"R  c #929292",
"E  c #939393",
"W  c gray59",
"Q  c #979797",
"!  c #9B9B9B",
"~  c #9D9D9D",
"^  c gray62",
"/  c #A0A0A0",
"(  c gray63",
")  c gray64",
"_  c #A5A5A5",
"`  c gray65",
"'  c gray66",
"]  c #A9A9A9",
"[  c gray68",
"{  c #AEAEAE",
"}  c #AFAFAF",
"|  c #B2B2B2",
" . c gray70",
".. c #B4B4B4",
"X. c gray71",
"o. c #B6B6B6",
"O. c #B7B7B7",
"+. c #B9B9B9",
"@. c #BCBCBC",
"#. c gray",
"$. c gray75",
"%. c #C1C1C1",
"&. c gray76",
"*. c #C5C5C5",
"=. c #C6C6C6",
"-. c gray79",
";. c gray80",
":. c #CECECE",
">. c #D2D2D2",
",. c LightGray",
"<. c gray84",
"1. c #D7D7D7",
"2. c gainsboro",
"3. c gray88",
"4. c #E2E2E2",
"5. c gray90",
"6. c #E7E7E7",
"7. c gray91",
"8. c #E9E9E9",
"9. c #EAEAEA",
"0. c gray93",
"q. c #EFEFEF",
"w. c #F1F1F1",
"e. c #F4F4F4",
"r. c gray96",
"t. c #F6F6F6",
"y. c gray97",
"u. c #F9F9F9",
"i. c gray98",
"p. c #FBFBFB",
"a. c #FDFDFD",
"s. c #FEFEFE",
"d. c white",
/* pixels */
"                                                                                                                                ",
"                                                                                                                                ",
"                                                                                                                                ",
"                                                                                                                                ",
"                                                                                                                                ",
"                                                                                                                                ",
"                                                                                                                                ",
"                                                                                                                                ",
"                                                                                                                                ",
"                                                                                                                                ",
"                                                                                                                                ",
"                                                    d.d.d.d.d.d.d.d.d.d.d.d.d.                                                  ",
"                                              d.d.d.d.d.d.d.d.d.d.d.d.d.d.d.d.d.d.d.                                            ",
"                                          d.d.d.d.d.d.d.d.d.d.d.d.d.d.d.d.d.d.d.d.d.d.d.d.                                      ",
"                                        d.d.d.d.d.d.d.d.d.d.d.d.d.d.d.d.d.d.d.d.d.d.d.d.d.d.d.                                  ",
"                                    d.d.d.d.d.d.d.d.d.d.d.d.d.d.d.d.d.d.d.d.d.d.d.d.d.d.d.d.d.d.d.                              ",
"                                  d.d.d.d.d.d.d.d.d.d.d.d.d.d.d.d.d.d.d.d.d.d.d.d.d.d.d.d.d.d.d.d.d.d.                          ",
"                                d.d.d.d.d.d.d.d.d.d.d.d.d.d.d.d.d.d.d.d.d.d.d.d.d.d.d.d.d.d.d.d.d.d.d.d.d.                      ",
"                              d.d.d.d.d.d.d.d.d.d.d.d.d.d.d.d.d.d.d.d.d.d.d.d.d.d.d.d.d.d.d.d.d.d.d.d.d.d.d.                    ",
"                          d.d.d.d.d.d.d.d.d.d.d.d.d.d.d.d.d.d.d.d.d.d.d.d.d.d.d.d.d.d.d.d.d.d.d.d.d.d.d.d.d.d.d.                ",
"                        d.d.d.d.d.d.d.d.d.d.d.d.d.d.d.d.d.d.d.d.d.d.d.d.d.d.d.d.d.d.d.d.d.d.d.d.d.d.d.d.d.d.d.d.d.              ",
"                      ` 6.d.d.d.d.d.d.d.d.d.d.d.d.d.d.d.d.d.d.d.d.d.d.d.d.d.d.d.d.d.d.d.d.d.d.d.d.d.d.d.d.d.d.d.d.d.d.          ",
"                    B B H ] 3.d.d.d.d.d.d.d.d.d.d.d.d.d.d.d.d.d.d.d.d.d.d.d.d.d.d.d.d.d.d.d.d.d.d.d.d.d.d.d.d.d.d.i.3.          ",
"                  B B B B B D ^ <.i.d.d.d.d.d.d.d.d.d.d.d.d.d.d.d.d.d.d.d.d.d.d.d.d.d.d.d.d.d.d.d.d.d.d.d.d.d.d.8.*.|           ",
"                B B B B B B B B C E ;.r.d.d.d.d.d.d.d.d.d.d.d.d.d.d.d.d.d.d.d.d.d.d.d.d.d.d.d.d.d.d.d.d.d.d.r.,...|             ",
"              B B B B B B B B B B B V I %.q.d.d.d.d.d.d.d.d.d.d.d.d.d.d.d.d.d.d.d.d.d.d.d.d.d.d.d.d.d.d.i.3.$.| | |             ",
"              y B B B B B B B B B B B B B P ..6.d.d.d.d.d.d.d.d.d.d.d.d.d.d.d.d.d.d.d.d.d.d.d.d.d.d.d.q.-...| | | |             ",
"              + q v B B B B B B B B B B B B B H ] 3.d.d.d.d.d.d.d.d.d.d.d.d.d.d.d.d.d.d.d.d.d.d.d.r.<.+.| | | | |               ",
"              . . 6 v B B B B B B B B B B B B B B D ^ <.i.d.d.d.d.d.d.d.d.d.d.d.d.d.d.d.d.d.d.d.6.%.| | | | | | |               ",
"            . . .   3 z B B B B B B B B B B B B B B B C E ;.r.d.d.d.d.d.d.d.d.d.d.d.d.d.d.d.w.;...| | | | | | |                 ",
"            . . . .   , g B B B B B B B B B B B B B B B B V I %.q.d.d.d.d.d.d.d.d.d.d.d.i.2.$.| | | | | | | | |                 ",
"            . . . . .   & a B B B B B B B B B B B B B B B B B B P ..8.d.d.d.d.d.d.d.d.8.*.| | | | | | | | | | ..                ",
"            . . . . . .   @ r v B B B B B B B B B B B B B B B B v B H ] 3.d.d.d.d.r.,...| | | | | | | | | | {                   ",
"            . . . . . . .   . 5 z B B B B B B B B B B B B B B B B B B B D ^ <.r.3.$.| | | | | | | | | | | | I                   ",
"            . . . . . . . . .   > d B B B B B B B B B B B B B B B B B B B B C ^ ..| | | | | | | | | | | ..`                     ",
"              . . . . . . . . .   @ r v B B B B B B B B B B B B B B B B B B v L | | | | | | | | | | | | | D                     ",
"                . . . . . . . . .   . 1 g B B B B B B B B B B B B B B B B B B F { | | | | | | | | | | ..! ;                     ",
"                  . . . . . . . . . .   % r v B B B B B B B B B B B B B B B B C ] ..| | | | | | | | ..{ a                       ",
"                    . . . . . . . . . .   . < d B B B B B B B B B B B B B B B V / ..| | | ..| | | | | H .                       ",
"                        . . . . . . . . . .   @ 6 k B B B B B B B B B B B B B B W ..| | ..| | | | ..E * .                       ",
"                          . . . . . . . . . . .   * t v B B B B B B B B B B B B I ..| | | | | | ..^ 3   .                       ",
"                              . . . . . . . . . .   . > a v B B B B B B B B B B P | | | | | | ../ q   .                         ",
"                                . . . . . . . . . . .   . < a v B B B B B B B B F { | | | | ../ r   . .                         ",
"                                  . . . . . . . . . . . .   . < a v B B B B B B C ] ..| | ..^ q   . .                           ",
"                                      . . . . . . . . . . . .   . , y z B B B B V / ..| | E 3   . .                             ",
"                                          . . . . . . . . . . . .   . ; q k B B B W ..{ H *   . .                               ",
"                                            . . . . . . . . . . . . .     % 3 a z I / g .   . .                                 ",
"                                                . . . . . . . . . . . . .     . ; r <   . . .                                   ",
"                                                    . . . . . . . . . . . . . .       . . .                                     ",
"                                                          . . . . . . . . . . . . . . .                                         ",
"                                                                  . . . . . . . . . .                                           ",
"                                                                        . . . . . .                                             ",
"                                                                                                                                ",
"                                                                                                                                ",
"                                                                                                                                ",
"                                                                                                                                ",
"                                                                                                                                ",
"                                                                                                                                ",
"                                                                                                                                ",
"                                                                                                                                ",
"                                                                                                                                ",
"                                                                                                                                ",
"                                                                                                                                ",
"                                                                                                                                "
};
