/* XPM */
static char *_90fd5672a3e4c62b86ba33cdb99c71fvrDfDkUb3rC7UYNM[] = {
/* columns rows colors chars-per-pixel */
"64 64 161 2 ",
"   c None",
".  c black",
"X  c #020202",
"o  c gray1",
"O  c #040404",
"+  c gray2",
"@  c #070707",
"#  c gray4",
"$  c #0B0B0B",
"%  c #0C0C0C",
"&  c gray5",
"*  c #111111",
"=  c gray7",
"-  c #181818",
";  c #191919",
":  c gray10",
">  c #1D1D1D",
",  c #1E1E1E",
"<  c gray12",
"1  c #202020",
"2  c gray14",
"3  c #272727",
"4  c #2A2A2A",
"5  c #313131",
"6  c gray20",
"7  c #343434",
"8  c #393939",
"9  c #3A3A3A",
"0  c gray23",
"q  c #3C3C3C",
"w  c #3E3E3E",
"e  c #3F3F3F",
"r  c gray25",
"t  c #414141",
"y  c #444444",
"u  c #464646",
"i  c gray28",
"p  c #494949",
"a  c gray30",
"s  c #4E4E4E",
"d  c #505050",
"f  c #515151",
"g  c gray32",
"h  c #535353",
"j  c gray33",
"k  c gray34",
"l  c #585858",
"z  c gray35",
"x  c #5B5B5B",
"c  c gray36",
"v  c gray37",
"b  c #606060",
"n  c gray38",
"m  c #626262",
"M  c gray39",
"N  c #646464",
"B  c #656565",
"V  c gray40",
"C  c #676767",
"Z  c #686868",
"A  c #6A6A6A",
"S  c #6D6D6D",
"D  c gray43",
"F  c #6F6F6F",
"G  c gray45",
"H  c #767676",
"J  c #777777",
"K  c gray47",
"L  c #797979",
"P  c #7B7B7B",
"I  c #7E7E7E",
"U  c #818181",
"Y  c #838383",
"T  c #8B8B8B",
"R  c #8E8E8E",
"E  c #939393",
"W  c gray58",
"Q  c #959595",
"!  c gray59",
"~  c #979797",
"^  c #989898",
"/  c gray60",
"(  c #9A9A9A",
")  c gray62",
"_  c #9F9F9F",
"`  c #A0A0A0",
"'  c #A2A2A2",
"]  c gray64",
"[  c #A4A4A4",
"{  c #A7A7A7",
"}  c gray66",
"|  c #A9A9A9",
" . c #AAAAAA",
".. c gray67",
"X. c #ACACAC",
"o. c #AEAEAE",
"O. c #AFAFAF",
"+. c #B1B1B1",
"@. c #B2B2B2",
"#. c gray70",
"$. c #B4B4B4",
"%. c gray71",
"&. c #B6B6B6",
"*. c #B7B7B7",
"=. c gray72",
"-. c #B9B9B9",
";. c gray73",
":. c #BCBCBC",
">. c gray74",
",. c gray",
"<. c gray75",
"1. c #C0C0C0",
"2. c #C1C1C1",
"3. c #C3C3C3",
"4. c gray77",
"5. c #C6C6C6",
"6. c #C8C8C8",
"7. c #CACACA",
"8. c #CECECE",
"9. c #D0D0D0",
"0. c gray82",
"q. c #D2D2D2",
"w. c gray83",
"e. c gray84",
"r. c #D7D7D7",
"t. c #D8D8D8",
"y. c gray85",
"u. c gainsboro",
"i. c #DDDDDD",
"p. c #DFDFDF",
"a. c gray88",
"s. c #E1E1E1",
"d. c #E2E2E2",
"f. c gray89",
"g. c #E4E4E4",
"h. c #E6E6E6",
"j. c #E7E7E7",
"k. c gray91",
"l. c #E9E9E9",
"z. c #EAEAEA",
"x. c gray92",
"c. c #ECECEC",
"v. c gray93",
"b. c #EEEEEE",
"n. c #EFEFEF",
"m. c gray94",
"M. c #F1F1F1",
"N. c gray95",
"B. c #F3F3F3",
"V. c #F4F4F4",
"C. c gray96",
"Z. c #F6F6F6",
"A. c gray97",
"S. c #F8F8F8",
"D. c #F9F9F9",
"F. c gray98",
"G. c #FBFBFB",
"H. c gray99",
"J. c #FDFDFD",
"K. c #FEFEFE",
"L. c white",
/* pixels */
"                                                                                                                                ",
"                                                                                                                                ",
"                                                                                                                                ",
"                                                                                                                                ",
"                                                                                                                                ",
"                                                                                                                                ",
"                                                                                                                                ",
"                                                                                                                                ",
"                                                                                                                                ",
"                                                                                                                                ",
"                                                                                                                                ",
"                                                                                                                                ",
"                                                                                                                                ",
"                                                                                                                                ",
"                                                                                                                                ",
"                                                        L.L.L.L.                                                                ",
"                                                L.L.L.L.L.L.L.L.L.L.                                                            ",
"                                          L.L.L.L.L.L.L.L.L.L.L.L.L.L.L.                                                        ",
"                                    L.L.L.L.L.L.L.L.L.L.L.L.L.L.L.L.L.L.L.L.                                                    ",
"                                L.L.L.L.L.L.L.L.L.L.L.L.L.L.L.L.L.L.L.L.L.L.L.L.                                                ",
"                            L.L.L.L.L.L.L.L.L.L.L.L.L.L.L.L.L.L.L.L.L.L.L.L.L.L.L.L.                                            ",
"                        L.L.L.L.L.L.L.L.L.L.L.L.L.L.L.L.L.L.L.L.L.L.L.L.L.L.L.L.L.L.L.L.                                        ",
"                    L.L.L.L.L.L.L.L.L.L.L.L.L.L.L.L.L.L.L.L.L.L.L.L.L.L.L.L.L.L.L.L.L.L.L.                                      ",
"                r.L.L.L.L.L.L.L.L.L.L.L.L.L.L.L.L.L.L.L.L.L.L.L.L.L.L.L.L.L.L.L.L.L.L.L.L.L.L.                                  ",
"            B B K 1.F.L.L.L.L.L.L.L.L.L.L.L.L.L.L.L.L.L.L.L.L.L.L.L.L.L.L.L.L.L.L.L.L.L.L.L.L.L.                                ",
"          B B B B Z ^ s.L.L.L.L.L.L.L.L.L.L.L.L.L.L.L.L.L.L.L.L.L.L.L.L.L.L.L.L.L.L.L.L.L.L.L.L.L.                              ",
"      n B B B B B B B K >.F.L.L.L.L.L.L.L.L.L.L.L.L.L.L.L.L.L.L.L.L.L.L.L.L.L.L.L.L.L.L.L.L.L.L.L.L.L.                          ",
"      9 n B B B B B B B Z ! s.L.L.L.L.L.L.L.L.L.L.L.L.L.L.L.L.L.L.L.L.L.L.L.L.L.L.L.L.L.L.L.L.L.L.L.L.L.                        ",
"        3 x B B B B B B B B K >.F.L.L.L.L.F.L.L.L.L.L.L.L.L.L.L.L.L.L.L.F.Z.M.x.p.r.6.>.g.L.L.L.L.L.L.L.L.                      ",
"          - g B B B B B B B B Z ! s.L.L.L.x.Z.L.L.L.L.L.L.L.L.L.L.Z.x.p.q.4.>.%.O. .) B p.L.L.L.L.L.L.L.L.L.L.                  ",
"        o   $ i B B B B B B B B B J >.Z.L.b.y.L.L.L.L.L.L.L.L.L.L.L.L.L.L.L.L.L.L.L.^ F s.b.M.F.L.L.L.L.L.L.Z.y.                ",
"        o o   o 9 n B B B B B B B B Z ! s.L.1.M.L.L.L.L.L.L.L.L.L.L.L.L.L.L.L.L.L.b.@.>.r.p.x.Z.L.L.L.F.g.q.>.%.@.              ",
"          o o o   4 x B B B B B B B B B J >.6.4.L.L.L.L.L.L.L.L.L.L.L.L.L.L.L.L.L.L.L.L.L.L.L.L.F.x.r.1.%.@.@.@.@.@.            ",
"            o o o   - g B B B B B B B n v v K K M.L.L.L.L.L.L.L.L.L.L.L.L.L.L.L.L.L.L.L.L.F.b.y.1.%.@.@.@.@.@.@.@.@.@.          ",
"              o o o   $ i B B B B B n v x g s g O.Z.L.L.L.L.L.L.L.L.L.L.L.L.L.L.L.L.L.M.p.4.%.@.@.@.@.@.@.@.@.@.@.@.@.@.        ",
"                o o o   o 6 v B B B B B B B B B Z ! p.L.L.L.L.L.L.L.L.L.L.L.L.L.Z.s.6.;.@.@.@.@.@.@.@.@.@.@.@.@.@.@.%.@. .      ",
"                  o o o o   , g B B B B B B B B B B J ;.Z.L.L.L.L.L.L.L.L.Z.g.8.>.@.@.@.@.@.@.@.@.@.@.@.@.@.@.@.%.O.! G         ",
"                    o o o o   $ t n B B B B B B B B B B E p.L.L.L.L.F.x.q.>.%.@.@.@.@.@.@.@.@.@.@.@.@.@.@.%.%.O.T g             ",
"                        o o o     3 k B B B B B B B B B B J ;.M.b.r.1.%.@.@.@.@.@.@.@.@.@.@.@.@.@.@.@.%.%. .U t                 ",
"                          o o o o   & t n B B B B B B B B B Z ] ;.@.@.@.@.@.@.@.@.@.@.@.@.@.@.@.@.%.@.{ K 7                     ",
"                            o o o o     , s B B B B B B B B B ^ %.@.@.@.@.@.@.@.@.@.@.@.@.@.%.%.O.^ B 3                         ",
"                                o o o o   + 6 x B B B B B B Z ) %.@.@.@.@.@.@.@.@.@.@.%.%.@.] U p =                             ",
"                                  o o o o o   & 9 x B B B B Z ] %.@.@.@.@.@.@.%.%.%.O.] U k ,                                   ",
"                                      o o o o     = q v B B F { %.@.%.%.%.@.O.] R F i - o                                       ",
"                                          o o o o     = q x F  .@. .] E I n q , + o                                             ",
"                                                o o o     & 9 n s 6 - +     o                                                   ",
"                                                      o o           o o                                                         ",
"                                                          o o o o                                                               ",
"                                                                                                                                ",
"                                                                                                                                ",
"                                                                                                                                ",
"                                                                                                                                ",
"                                                                                                                                ",
"                                                                                                                                ",
"                                                                                                                                ",
"                                                                                                                                ",
"                                                                                                                                ",
"                                                                                                                                ",
"                                                                                                                                ",
"                                                                                                                                ",
"                                                                                                                                ",
"                                                                                                                                ",
"                                                                                                                                ",
"                                                                                                                                "
};
