/* XPM */
static char *_f75d5446553487bf0d21fce76a0b9c2IAdhELPVhkMRJ7t8[] = {
/* columns rows colors chars-per-pixel */
"64 64 139 2 ",
"   c None",
".  c black",
"X  c #010101",
"o  c #020202",
"O  c gray1",
"+  c #040404",
"@  c gray2",
"#  c #060606",
"$  c #070707",
"%  c gray3",
"&  c gray4",
"*  c #0B0B0B",
"=  c #0C0C0C",
"-  c gray5",
";  c #0E0E0E",
":  c gray6",
">  c #111111",
",  c gray7",
"<  c #131313",
"1  c gray8",
"2  c #151515",
"3  c #161616",
"4  c gray9",
"5  c gray10",
"6  c #1B1B1B",
"7  c gray11",
"8  c gray13",
"9  c #232323",
"0  c gray15",
"q  c #272727",
"w  c #282828",
"e  c gray16",
"r  c #2A2A2A",
"t  c #2C2C2C",
"y  c #2D2D2D",
"u  c gray18",
"i  c #323232",
"p  c gray20",
"a  c #373737",
"s  c gray22",
"d  c #3C3C3C",
"f  c #3F3F3F",
"g  c #414141",
"h  c #434343",
"j  c gray27",
"k  c #494949",
"l  c gray29",
"z  c #4C4C4C",
"x  c gray30",
"c  c #4E4E4E",
"v  c gray31",
"b  c #515151",
"n  c #535353",
"m  c #565656",
"M  c #585858",
"N  c gray36",
"B  c #5D5D5D",
"V  c gray39",
"C  c #656565",
"Z  c #686868",
"A  c #6C6C6C",
"S  c gray43",
"D  c #717171",
"F  c #727272",
"G  c #747474",
"H  c gray46",
"J  c #767676",
"K  c gray47",
"L  c #797979",
"P  c gray48",
"I  c #7B7B7B",
"U  c #7C7C7C",
"Y  c gray49",
"T  c #7E7E7E",
"R  c #808080",
"E  c #818181",
"W  c #848484",
"Q  c gray53",
"!  c #898989",
"~  c #8B8B8B",
"^  c gray55",
"/  c #909090",
"(  c gray57",
")  c gray59",
"_  c #989898",
"`  c gray60",
"'  c #9A9A9A",
"]  c #9B9B9B",
"[  c gray61",
"{  c gray62",
"}  c gray63",
"|  c #A2A2A2",
" . c gray64",
".. c #A4A4A4",
"X. c #A5A5A5",
"o. c gray65",
"O. c #A7A7A7",
"+. c gray66",
"@. c #A9A9A9",
"#. c #AAAAAA",
"$. c #ACACAC",
"%. c #AFAFAF",
"&. c #B2B2B2",
"*. c gray71",
"=. c #B6B6B6",
"-. c gray72",
";. c #B9B9B9",
":. c gray73",
">. c #BBBBBB",
",. c #BCBCBC",
"<. c gray74",
"1. c #C3C3C3",
"2. c gray78",
"3. c gray79",
"4. c #CDCDCD",
"5. c #CECECE",
"6. c #D0D0D0",
"7. c gray82",
"8. c gray84",
"9. c #D7D7D7",
"0. c gray85",
"q. c #DDDDDD",
"w. c gray87",
"e. c #DFDFDF",
"r. c gray88",
"t. c #E1E1E1",
"y. c #E7E7E7",
"u. c gray91",
"i. c #E9E9E9",
"p. c #EAEAEA",
"a. c #ECECEC",
"s. c gray93",
"d. c #EEEEEE",
"f. c gray95",
"g. c #F3F3F3",
"h. c #F8F8F8",
"j. c #FBFBFB",
"k. c #FEFEFE",
"l. c white",
/* pixels */
"                                                                                                                                ",
"                                                                                                                                ",
"                                                                                                                                ",
"                                                                                                                                ",
"                                                                                                                                ",
"                                                                                                                                ",
"                                                                                                                                ",
"                                                                                                                                ",
"                                                                                                                                ",
"                                                                                                                                ",
"                                                                                                                                ",
"                                                                                                                                ",
"                                                                                                                                ",
"                                                                                                                                ",
"                                                                                                                                ",
"                                                                                                                                ",
"                                                                                                                                ",
"                                                                                                                                ",
"                                                                                                                                ",
"                                                                                                                                ",
"                                                                                                                                ",
"                                                                                                                                ",
"                                                                                                                                ",
"                                                                                                                                ",
"                                                                                                                                ",
"                                                                                                                                ",
"                                                                                                                                ",
"                                                                                                                                ",
"                                                                                                                                ",
"                                                                                                                                ",
"                                                                                                                                ",
"                                                                                                                                ",
"                                                                                                                                ",
"                                                                                                                                ",
"                                                                                                                                ",
"                                                                                                                                ",
"                                                                                                                                ",
"                                                              e 5     1 s :                                                     ",
"                                                            o / =.G G %.<.5                                                     ",
"                                                              h N D R m M :                                                     ",
"                                                              o o u h o o o                                                     ",
"                                                        o o o o o + + o o o o o o o                                             ",
"                                                      o f +.....+.+.+.+.......+.] 8 + * * * * * * * * * + o                     ",
"                              o 1 5 * o       o o o < a +.l.l.l.l.l.l.l.l.l.l.l.l.5.-.-.-.-.-.-.-.-.-.-.| 1                     ",
"                              : %.q.P : 1 8 i z D [ 1.0.a.l.l.l.l.l.l.l.l.l.l.l.l.g.q.q.q.q.q.q.q.q.q.t.7.e                     ",
"                              < 7.l.a.5.8.t.p.p.0.<.] Y -.l.l.l.l.l.h.7.1.8.l.l.l.=.P P P P P P P P P Y A <                     ",
"                              < 2.h.g.a.q.2...G k e 1 + G l.l.l.l.l.h.1.&.5.l.l.p.i * * * * * * * * * * * o                     ",
"                              : ! +...[ R k 7 + o o   o V a.p.p.p.p.p.y.y.p.p.3.N +                                             ",
"                              : Y ] Q j < o           + A ..| | | | | | | / b 1 o                                               ",
"                              : P ] z o             o e Q z k z z z z R ] f o                                                   ",
"                              o 8 e < o             + Z N o o o o o o b ] u o                                                   ",
"                                                  o 0 ^ e o o o     o b ] u o                                                   ",
"                                                  o C Y * o o o     o k ! e o                                                   ",
"                                                o 0 ) Z o           o : 1 +                                                     ",
"                                                o u N s o                                                                       ",
"                                                o o o o o                                                                       ",
"                                                                                                                                ",
"                                                                                                                                ",
"                                                                                                                                ",
"                                                                                                                                ",
"                                                                                                                                ",
"                                                                                                                                ",
"                                                                                                                                ",
"                                                                                                                                "
};
