/* XPM */
static char *_2f10d07bc064eee8e85bbf4be3deadcegn4OsOJUJQSqDvZ[] = {
/* columns rows colors chars-per-pixel */
"64 64 133 2 ",
"   c None",
".  c black",
"X  c #010101",
"o  c #020202",
"O  c gray1",
"+  c #040404",
"@  c gray2",
"#  c #060606",
"$  c #070707",
"%  c gray3",
"&  c #090909",
"*  c gray4",
"=  c #0B0B0B",
"-  c gray6",
";  c #101010",
":  c #111111",
">  c gray7",
",  c #131313",
"<  c gray8",
"1  c #151515",
"2  c #161616",
"3  c gray9",
"4  c #191919",
"5  c gray10",
"6  c #1D1D1D",
"7  c #1E1E1E",
"8  c gray12",
"9  c gray13",
"0  c #232323",
"q  c gray14",
"w  c gray15",
"e  c gray16",
"r  c #2C2C2C",
"t  c #313131",
"y  c #323232",
"u  c gray20",
"i  c #343434",
"p  c #353535",
"a  c #373737",
"s  c gray22",
"d  c #3C3C3C",
"f  c #3E3E3E",
"g  c gray25",
"h  c #414141",
"j  c gray28",
"k  c #484848",
"l  c #494949",
"z  c gray29",
"x  c #4B4B4B",
"c  c #4E4E4E",
"v  c #505050",
"b  c #515151",
"n  c #535353",
"m  c gray33",
"M  c gray34",
"N  c #585858",
"B  c gray35",
"V  c #5A5A5A",
"C  c #5B5B5B",
"Z  c gray36",
"A  c #5D5D5D",
"S  c gray37",
"D  c gray38",
"F  c #626262",
"G  c gray39",
"H  c #646464",
"J  c #656565",
"K  c gray40",
"L  c DimGray",
"P  c #6A6A6A",
"I  c #6C6C6C",
"U  c gray44",
"Y  c #717171",
"T  c gray45",
"R  c gray46",
"E  c #767676",
"W  c #777777",
"Q  c gray47",
"!  c #797979",
"~  c #7B7B7B",
"^  c gray49",
"/  c #7E7E7E",
"(  c gray50",
")  c #818181",
"_  c gray51",
"`  c #838383",
"'  c gray52",
"]  c #898989",
"[  c #8E8E8E",
"{  c gray56",
"}  c #909090",
"|  c gray57",
" . c #929292",
".. c gray59",
"X. c #979797",
"o. c gray60",
"O. c #9A9A9A",
"+. c #9B9B9B",
"@. c gray61",
"#. c #A4A4A4",
"$. c gray65",
"%. c gray66",
"&. c #A9A9A9",
"*. c #AAAAAA",
"=. c gray68",
"-. c gray69",
";. c #B2B2B2",
":. c #B7B7B7",
">. c gray74",
",. c gray",
"<. c gray75",
"1. c #C0C0C0",
"2. c #C1C1C1",
"3. c gray76",
"4. c #C3C3C3",
"5. c #C5C5C5",
"6. c gray80",
"7. c #CDCDCD",
"8. c gray84",
"9. c #D7D7D7",
"0. c #D8D8D8",
"q. c gray85",
"w. c #DADADA",
"e. c gray86",
"r. c gainsboro",
"t. c #DFDFDF",
"y. c gray93",
"u. c #EEEEEE",
"i. c gray94",
"p. c gray97",
"a. c #F8F8F8",
"s. c #FDFDFD",
"d. c white",
/* pixels */
"                                                                                                                                ",
"                                                                                                                                ",
"                                                                                                                                ",
"                                                                                                                                ",
"                                                                                                                                ",
"                                                                                                                                ",
"                                                                                                                                ",
"                                                                                                                                ",
"                                                                                                                                ",
"                                                                                                                                ",
"                                                                                                                                ",
"                                                                                                                                ",
"                                                                                                                                ",
"                                                                                                                                ",
"                                                                                                                                ",
"                                                                                                                                ",
"                                                                                                                                ",
"                                                                                                                                ",
"                                                                                                                                ",
"                                                                                                                                ",
"                                                                                                                                ",
"                                                                                                                                ",
"                                                                                                                                ",
"                                                                                                                                ",
"                                                                                                                                ",
"                                                                                                                                ",
"                                                                                                                                ",
"                                                                                                                                ",
"                                                                                                                                ",
"                                                                                                                                ",
"                                                                                                                                ",
"                                                                                                                                ",
"                                                                                                                                ",
"                                                                                                                                ",
"                                                                                                                                ",
"                                                                                                                                ",
"                                                                                                                                ",
"                                                                                                                                ",
"                                                                                                                                ",
"                                                                                                                                ",
"                                                                                                                                ",
"                                                                                                                                ",
"                                                                                                                                ",
"                                                      . . . . . . . . . . . . . . . . . . . . . . . . . . .                     ",
"                                              . . > 0 a C T T T T T T T T T T T T T E E ! ! / / _ _ ' ] I &                     ",
"                                        . & w j L _ } X.6.d.d.p.a.d.d.d.d.d.d.d.d.p.q.q.q.9.9.9.9.9.q.t.;.>                     ",
"                                    . 4 x E } +.@.+.+.X.6.d.9.$.=.u.d.d.i.;.*.*.*.} K L $.>.>.>.>.>.} f r #                     ",
"                                . > M ] +.@.X.[ _ ! T I :.d.u.q.q.a.d.d.>.- 3 3 3 3 3 & ! 5.4.4.>.4.T . .                       ",
"                              . 6 ! +.+.[ / I G Z Z Z C ;.d.t.[ L K K K x > M G G G Z 4 6 a a t t t 6 .                         ",
"                              & I @.[ E G Z C Z M h e 6 K 4.a . . . . . . & j n n n c 3 . . . . . . .                           ",
"                              w } / G C Z Z C f 3 # # . . 4 .             . # # # # # .                                         ",
"                            . s E Z C Z Z x 0 . .         . .                                                                   ",
"                            . 0 Z Z Z n t & .                                                                                   ",
"                              & h x t > .                                                                                       ",
"                              . # # .                                                                                           ",
"                                                                                                                                ",
"                                                                                                                                ",
"                                                                                                                                ",
"                                                                                                                                ",
"                                                                                                                                ",
"                                                                                                                                ",
"                                                                                                                                ",
"                                                                                                                                ",
"                                                                                                                                "
};
