/* XPM */
static char *_378bf258bc241c5c6be519505d3a3e2UCVOzJfmo6fUkmUO[] = {
/* columns rows colors chars-per-pixel */
"64 64 92 1 ",
"  c None",
". c black",
"X c #010101",
"o c gray1",
"O c gray2",
"+ c #060606",
"@ c #070707",
"# c gray3",
"$ c gray4",
"% c #0C0C0C",
"& c gray6",
"* c #101010",
"= c #131313",
"- c #161616",
"; c #191919",
": c gray10",
"> c #1B1B1B",
", c gray11",
"< c #1E1E1E",
"1 c gray12",
"2 c #202020",
"3 c #222222",
"4 c #272727",
"5 c #282828",
"6 c gray16",
"7 c gray17",
"8 c #2C2C2C",
"9 c #2F2F2F",
"0 c gray19",
"q c gray20",
"w c #343434",
"e c gray22",
"r c gray23",
"t c #3F3F3F",
"y c #414141",
"u c #434343",
"i c gray28",
"p c #4E4E4E",
"a c gray40",
"s c #676767",
"d c DimGray",
"f c #6A6A6A",
"g c gray42",
"h c #6F6F6F",
"j c gray46",
"k c gray47",
"l c #797979",
"z c #7B7B7B",
"x c gray50",
"c c #808080",
"v c gray52",
"b c gray54",
"n c #8E8E8E",
"m c #929292",
"M c #939393",
"N c gray58",
"B c #989898",
"V c #9A9A9A",
"C c #9D9D9D",
"Z c gray63",
"A c #A4A4A4",
"S c gray67",
"D c #ACACAC",
"F c #AEAEAE",
"G c gray73",
"H c #BCBCBC",
"J c gray74",
"K c gray75",
"L c #C1C1C1",
"P c #C3C3C3",
"I c gray77",
"U c #C5C5C5",
"Y c #C8C8C8",
"T c gray80",
"R c #CDCDCD",
"E c #D0D0D0",
"W c gray82",
"Q c #D5D5D5",
"! c #DADADA",
"~ c gray87",
"^ c #DFDFDF",
"/ c #EEEEEE",
"( c #EFEFEF",
") c gray94",
"_ c #F1F1F1",
"` c #F3F3F3",
"' c #F6F6F6",
"] c gray97",
"[ c gray99",
"{ c #FDFDFD",
"} c #FEFEFE",
"| c white",
/* pixels */
"                                                                ",
"                                                                ",
"                                                                ",
"                                                                ",
"                                                                ",
"                                                                ",
"                                                                ",
"                                                                ",
"                                                                ",
"                                                                ",
"                                                                ",
"                                                                ",
"                                                                ",
"                                                                ",
"                                                                ",
"                                                                ",
"                                                                ",
"                                                                ",
"                                                                ",
"                                                                ",
"                                                                ",
"                                                                ",
"                                                                ",
"                                                                ",
"                                                                ",
"                                                                ",
"                                                                ",
"                                                                ",
"                                                                ",
"                                                                ",
"                                                                ",
"                                                                ",
"                                                                ",
"                                                                ",
"                                                                ",
"                                                                ",
"                                                                ",
"                                                                ",
"                                                                ",
"                                                                ",
"                                                                ",
"                                                                ",
"                            .%3311111111>..                     ",
"                            1ZPKW^^^^^^^Wp6686#                 ",
"                           .s_DAQ||||||||!RRRP6                 ",
"                           .d|_('|||||||_duuut%                 ",
"                           .d||||||||||'K-.....                 ",
"                           .j|(PGKPIYIDd>.                      ",
"                          .8MGSnbvczzhw.                        ",
"                          *zCz41>*%%#@.                         ",
"                         .iBN0...                               ",
"                         *xCs@...                               ",
"                        .rBM8..                                 ",
"                        .3r0@                                   ",
"                        ....                                    ",
"                                                                ",
"                                                                ",
"                                                                ",
"                                                                ",
"                                                                ",
"                                                                ",
"                                                                ",
"                                                                ",
"                                                                "
};
